if (_typeface_js && _typeface_js.loadFace) _typeface_js.loadFace({"glyphs":{"0":{"ha":953,"x_min":0,"x_max":0,"o":"m 914 572 b 601 907 914 760 799 907 b 36 314 311 907 36 599 b 349 -15 36 129 156 -15 b 914 572 638 -15 914 293 z m 758 576 b 349 142 758 379 549 142 b 192 311 246 142 192 213 b 601 750 192 511 397 750 b 758 576 707 750 758 676 z "},"1":{"ha":442,"x_min":0,"x_max":0,"o":"m 368 69 l 368 824 b 290 901 368 867 333 901 l 290 901 b 238 882 271 901 253 894 l 69 733 b 43 674 51 718 43 696 b 122 597 43 631 79 597 b 172 617 140 597 158 604 l 211 651 l 211 69 b 290 -10 211 26 247 -10 b 368 69 333 -10 368 26 z "},"2":{"ha":721,"x_min":0,"x_max":0,"o":"m 671 639 b 368 907 671 804 525 907 b 88 818 283 907 186 882 b 50 753 64 803 50 778 b 63 711 50 738 54 724 b 129 675 78 688 103 675 b 171 686 143 675 157 678 b 365 751 243 732 310 751 b 515 638 433 751 515 717 b 410 488 515 589 478 535 b 56 119 231 365 128 269 b 46 81 49 108 46 94 b 124 0 46 36 78 0 l 590 0 b 668 78 633 0 668 35 b 590 156 668 121 633 156 l 258 156 b 499 360 315 232 389 285 b 671 639 622 444 671 547 z "},"3":{"ha":758,"x_min":0,"x_max":0,"o":"m 718 389 b 521 613 718 504 624 599 b 544 696 540 639 544 668 b 313 906 544 828 433 904 b 72 835 250 906 171 888 b 32 767 47 821 32 794 b 110 689 32 724 65 689 b 146 697 122 689 135 692 b 310 749 215 735 271 749 b 390 693 360 749 390 725 b 324 622 390 657 369 633 b 106 574 256 604 168 592 b 49 499 71 564 49 532 b 126 421 49 453 85 421 b 149 424 133 421 142 422 b 406 478 215 443 338 478 b 563 388 510 478 563 440 b 103 140 563 269 338 169 b 33 64 64 136 33 104 b 111 -14 33 19 68 -14 b 121 -14 115 -14 118 -14 b 718 389 326 11 718 121 z "},"4":{"ha":800,"x_min":0,"x_max":0,"o":"m 779 279 b 701 357 779 322 744 357 l 640 357 l 640 515 b 563 593 640 558 606 593 b 485 515 519 593 485 558 l 485 357 l 265 357 l 610 774 b 626 824 621 788 626 806 b 549 901 626 867 592 901 b 489 874 526 901 504 892 l 39 328 b 22 279 28 314 21 297 l 22 278 b 100 201 22 236 56 201 l 485 201 l 485 68 b 563 -10 485 25 519 -10 b 640 68 606 -10 640 25 l 640 201 l 701 201 b 779 279 744 201 779 236 z "},"5":{"ha":710,"x_min":0,"x_max":0,"o":"m 679 364 b 363 611 679 536 517 611 b 201 586 308 611 254 600 l 201 735 l 508 735 b 586 814 551 735 586 771 b 508 892 586 856 551 892 l 124 892 b 46 814 81 892 46 856 l 46 489 b 78 426 46 464 58 440 b 124 411 92 417 108 411 b 147 415 132 411 140 413 b 363 463 217 436 286 463 b 524 365 422 463 524 442 b 103 142 524 207 208 151 b 32 65 64 138 32 106 b 111 -14 32 22 67 -14 b 118 -14 113 -14 115 -14 b 679 364 321 4 679 99 z "},"6":{"ha":842,"x_min":0,"x_max":0,"o":"m 796 374 b 560 613 796 514 699 613 b 203 346 404 613 258 489 b 201 368 203 354 201 361 l 201 368 b 639 751 201 519 317 700 b 704 828 676 758 704 790 b 626 907 704 874 669 907 b 614 906 622 907 618 907 b 46 357 186 836 46 571 b 399 -14 46 151 192 -14 b 796 374 597 -14 796 175 z m 639 376 b 399 142 639 264 515 142 b 321 224 347 142 321 174 b 561 457 321 336 447 457 b 639 376 611 457 639 428 z "},"7":{"ha":747,"x_min":0,"x_max":0,"o":"m 718 815 b 640 892 718 857 683 892 l 110 892 b 32 814 67 892 32 857 b 110 736 32 771 67 736 l 494 736 b 78 113 494 736 388 575 b 65 69 69 99 65 85 b 144 -8 65 25 100 -8 b 208 26 168 -8 193 4 l 706 771 b 718 815 714 783 718 799 z "},"8":{"ha":856,"x_min":0,"x_max":0,"o":"m 821 399 b 622 618 821 511 735 606 b 657 717 644 644 657 685 b 440 906 657 839 553 906 b 118 631 294 906 118 790 b 190 497 118 579 147 522 b 38 222 103 442 38 317 b 38 213 38 218 38 215 b 325 -15 44 56 185 -15 b 821 399 538 -15 821 165 z m 500 714 b 338 597 500 646 399 597 b 274 633 299 597 274 610 b 440 750 274 699 383 751 b 500 714 479 750 500 735 z m 665 397 b 324 140 665 257 443 140 b 193 219 272 140 193 157 b 538 482 193 361 410 482 b 665 397 592 482 665 467 z "},"9":{"ha":842,"x_min":0,"x_max":0,"o":"m 796 535 b 443 906 796 740 650 906 b 46 518 244 906 46 717 b 282 279 46 378 142 279 b 639 546 436 279 583 403 b 639 524 639 538 639 531 l 639 524 b 203 140 639 372 525 192 b 138 64 165 133 138 101 b 214 -15 138 18 172 -15 b 228 -14 219 -15 224 -15 b 796 535 656 56 796 321 z m 521 668 b 281 435 521 554 394 435 b 201 515 231 435 201 464 b 443 750 201 628 326 750 b 521 668 494 750 521 718 z "}," ":{"ha":282,"x_min":0,"x_max":0,"o":""},"š":{"ha":492,"x_min":0,"x_max":0,"o":"m 468 864 b 407 925 468 897 442 925 b 374 915 396 925 385 921 l 247 833 l 118 915 b 85 925 108 921 96 925 b 24 864 51 925 24 897 b 51 811 24 843 33 824 l 214 708 b 247 699 224 703 235 699 b 281 708 258 699 269 703 l 440 811 b 468 864 458 824 468 843 z m 460 165 b 240 381 460 272 386 344 b 178 426 217 388 178 400 b 236 461 178 446 197 461 b 331 429 264 461 296 449 b 365 421 342 424 354 421 b 429 458 392 421 417 433 b 439 493 435 469 439 481 b 401 556 439 518 425 543 b 225 599 347 586 299 599 b 33 426 122 599 33 538 b 204 240 33 336 97 268 b 314 165 314 213 314 178 b 254 121 314 140 292 121 b 143 164 214 121 163 143 b 92 186 129 179 110 186 b 40 165 72 186 54 179 b 18 114 26 151 18 133 b 39 64 18 96 25 78 b 254 -15 86 15 174 -15 b 460 165 372 -15 460 61 z "},"Ý":{"ha":753,"x_min":0,"x_max":0,"o":"m 729 824 b 651 903 729 868 694 903 b 588 871 628 903 603 893 l 379 586 l 163 872 b 99 903 146 893 122 903 b 22 825 57 903 22 868 b 38 778 22 808 26 792 l 301 428 l 301 68 b 381 -10 301 25 338 -10 b 458 68 424 -10 458 25 l 458 431 l 714 779 b 729 824 724 793 729 808 z "},"ý":{"ha":644,"x_min":0,"x_max":0,"o":"m 621 515 b 547 589 621 557 588 589 b 482 544 519 589 493 572 l 329 193 l 161 551 b 96 593 149 578 124 593 b 24 521 56 593 24 561 b 31 490 24 510 26 500 l 251 15 l 249 7 b 121 -108 214 -69 172 -108 b 89 -103 111 -108 100 -107 b 68 -100 82 -101 75 -100 b -4 -174 29 -100 -4 -132 b 49 -242 -4 -204 17 -233 b 124 -254 74 -250 99 -254 b 381 -50 231 -253 324 -181 l 614 488 b 621 515 618 496 621 506 z "},"Þ":{"ha":704,"x_min":0,"x_max":0,"o":"m 668 565 b 392 793 668 719 528 793 b 214 761 336 793 276 782 l 214 829 b 139 904 214 869 181 904 b 64 829 97 904 64 869 l 64 63 b 139 -12 64 21 97 -12 b 214 63 181 -12 214 21 l 214 206 b 668 565 394 236 668 343 z m 518 565 b 214 342 518 443 303 363 l 214 601 b 396 644 288 633 346 644 b 518 565 443 644 518 628 z "},"þ":{"ha":707,"x_min":0,"x_max":0,"o":"m 681 376 b 413 600 681 525 546 600 b 196 556 347 600 274 586 l 196 828 b 124 900 196 867 164 900 b 51 828 83 900 51 867 l 51 444 l 51 -176 b 124 -249 51 -217 83 -249 b 196 -176 164 -249 196 -217 l 196 -6 b 681 376 383 25 681 143 z m 536 376 b 196 129 536 244 289 150 l 196 399 b 410 456 283 440 356 456 b 536 376 461 456 536 439 z "},"Ž":{"ha":697,"x_min":0,"x_max":0,"o":"m 594 1113 b 533 1174 594 1146 568 1174 b 500 1164 522 1174 511 1171 l 374 1082 l 244 1164 b 211 1174 235 1171 222 1174 b 150 1113 178 1174 150 1146 b 178 1061 150 1092 160 1072 l 340 958 b 374 949 350 951 361 949 b 407 958 385 949 396 951 l 567 1061 b 594 1113 585 1072 594 1092 z m 675 79 b 597 157 675 122 640 157 l 244 157 b 638 771 244 157 346 317 b 650 813 646 783 650 799 b 572 890 650 856 615 890 l 133 890 b 54 813 90 890 54 856 b 133 735 54 769 90 735 l 429 735 b 36 121 429 735 328 575 b 24 79 28 108 24 93 b 101 1 24 36 58 1 l 597 1 b 675 79 640 1 675 36 z "},"ž":{"ha":576,"x_min":0,"x_max":0,"o":"m 497 864 b 436 925 497 897 469 925 b 403 915 425 925 413 921 l 275 833 l 147 915 b 114 925 136 921 125 925 b 53 864 79 925 53 897 b 81 811 53 843 63 824 l 242 708 b 275 699 253 703 264 699 b 308 708 288 699 299 703 l 469 811 b 497 864 488 824 497 843 z m 561 72 b 489 144 561 113 529 144 l 257 144 b 532 465 257 144 364 269 b 550 513 544 478 550 494 b 478 585 550 551 518 585 l 108 585 b 36 513 69 585 36 551 b 108 440 36 472 69 440 l 319 440 b 43 119 319 440 211 314 b 26 72 32 107 26 89 b 99 0 26 33 58 0 l 489 0 b 561 72 529 0 561 32 z "},"½":{"ha":1314,"x_min":0,"x_max":0,"o":"m 1269 72 b 1197 144 1269 113 1236 144 l 990 144 b 1124 232 1026 179 1068 199 b 1260 433 1217 286 1260 367 b 1042 631 1260 553 1157 631 b 843 569 982 631 914 614 b 810 508 822 556 810 532 b 821 469 810 494 814 481 b 882 436 835 447 858 436 b 921 447 896 436 908 439 b 1038 490 967 475 1006 490 l 1039 490 b 1115 432 1071 490 1115 474 b 1056 351 1115 407 1094 378 b 799 110 939 271 850 214 b 790 74 793 97 790 86 l 790 72 b 863 0 792 35 819 0 l 1197 0 b 1269 72 1236 0 1269 32 z m 972 824 b 893 901 972 868 938 901 b 835 874 871 901 850 892 l 213 119 b 194 68 200 104 194 86 b 274 -8 194 26 229 -8 b 333 19 296 -8 318 1 l 954 774 b 972 824 967 789 972 807 z m 317 335 l 317 829 b 243 903 317 869 283 903 b 203 889 229 901 215 897 l 74 797 b 43 738 53 783 43 761 b 115 667 43 697 76 667 l 117 667 b 157 679 131 667 144 671 l 172 690 l 172 335 b 244 263 172 294 204 263 b 317 335 285 263 317 294 z "},"¼":{"ha":1225,"x_min":0,"x_max":0,"o":"m 1181 182 b 1108 254 1181 222 1149 254 l 1063 254 l 1063 317 b 990 389 1063 357 1031 389 b 918 317 950 389 918 357 l 918 254 l 803 254 l 1017 514 b 1033 560 1029 526 1033 543 b 963 632 1033 600 1001 632 b 906 606 940 632 919 624 l 593 228 b 576 182 582 215 576 199 b 583 151 576 171 579 161 b 650 110 596 125 621 110 l 918 110 l 918 64 b 990 -8 918 24 950 -8 b 1063 64 1031 -8 1063 24 l 1063 110 l 1108 110 b 1181 182 1149 110 1181 142 z m 972 824 b 893 901 972 868 938 901 b 835 874 871 901 850 892 l 213 119 b 194 68 200 104 194 86 b 274 -8 194 26 229 -8 b 333 19 296 -8 318 1 l 954 774 b 972 824 967 789 972 807 z m 317 335 l 317 829 b 243 903 317 869 283 903 b 203 889 229 901 215 897 l 74 797 b 43 738 53 783 43 761 b 115 667 43 697 76 667 l 117 667 b 157 679 131 667 144 671 l 172 690 l 172 335 b 244 263 172 294 204 263 b 317 335 285 263 317 294 z "},"¹":{"ha":399,"x_min":0,"x_max":0,"o":"m 317 335 l 317 829 b 243 903 317 869 283 903 b 203 889 229 901 215 897 l 74 797 b 43 738 53 783 43 761 b 115 667 43 697 76 667 l 117 667 b 157 679 131 667 144 671 l 172 690 l 172 335 b 244 263 172 294 204 263 b 317 335 285 263 317 294 z "},"¾":{"ha":1331,"x_min":0,"x_max":0,"o":"m 1300 182 b 1228 254 1300 222 1268 254 l 1182 254 l 1182 317 b 1110 389 1182 357 1149 389 b 1038 317 1069 389 1038 357 l 1038 254 l 922 254 l 1136 514 b 1153 560 1147 526 1153 543 b 1081 632 1153 600 1121 632 b 1025 606 1060 632 1039 624 l 713 228 b 696 182 701 215 696 199 b 703 151 696 171 699 161 b 768 110 715 125 740 110 l 1038 110 l 1038 64 b 1110 -8 1038 24 1069 -8 b 1182 64 1149 -8 1182 24 l 1182 110 l 1228 110 b 1300 182 1268 110 1300 142 z m 1092 824 b 1013 901 1092 868 1057 901 b 953 874 990 901 968 892 l 332 119 b 314 68 319 104 314 86 b 393 -8 314 26 349 -8 b 453 19 415 -8 438 1 l 1074 774 b 1092 824 1086 789 1092 807 z m 536 514 b 415 664 536 589 483 644 b 432 726 428 682 432 707 b 240 907 432 826 349 907 b 74 858 194 907 140 894 b 35 794 49 844 35 819 b 107 722 35 754 67 722 b 142 731 119 722 131 725 b 239 761 183 753 217 761 l 240 761 b 288 722 274 761 288 743 b 210 674 288 699 272 688 l 103 649 b 47 579 69 642 47 613 b 118 506 47 539 79 506 b 136 508 124 506 129 506 l 243 536 b 332 547 278 546 303 547 b 392 510 371 547 392 531 b 117 383 392 456 244 399 b 53 311 81 379 53 347 b 54 303 53 308 53 306 b 125 239 58 267 89 239 b 133 240 128 239 131 239 b 536 514 279 257 536 326 z "},"³":{"ha":574,"x_min":0,"x_max":0,"o":"m 536 514 b 415 664 536 589 483 644 b 432 726 428 682 432 707 b 240 907 432 826 349 907 b 74 858 194 907 140 894 b 35 794 49 844 35 819 b 107 722 35 754 67 722 b 142 731 119 722 131 725 b 239 761 183 753 217 761 l 240 761 b 288 722 274 761 288 743 b 210 674 288 699 272 688 l 103 649 b 47 579 69 642 47 614 b 118 506 47 539 79 506 b 136 508 124 506 129 506 l 243 536 b 332 547 278 546 303 547 b 392 510 371 547 392 531 b 117 383 392 456 244 399 b 53 311 81 379 53 347 b 54 303 53 308 53 306 b 125 239 58 267 89 239 b 133 240 128 239 131 239 b 536 514 279 257 536 326 z "},"²":{"ha":569,"x_min":0,"x_max":0,"o":"m 529 349 b 457 421 529 388 496 421 l 250 421 b 383 508 286 456 328 475 b 519 708 476 563 519 643 b 301 906 519 829 417 906 b 103 844 242 906 174 889 b 69 783 82 831 69 808 b 81 744 69 771 74 757 b 142 711 94 724 118 711 b 181 722 156 711 168 715 b 297 765 226 751 265 767 l 299 765 b 375 708 331 765 375 750 b 315 628 375 683 354 653 b 58 385 199 547 110 490 b 50 350 53 374 50 361 l 50 349 b 122 276 51 310 81 276 l 457 276 b 529 349 496 276 529 308 z "},"¦":{"ha":247,"x_min":0,"x_max":0,"o":"m 196 572 l 196 828 b 124 900 196 868 164 900 b 51 828 83 900 51 868 l 51 572 b 124 500 51 532 83 500 b 196 572 164 500 196 532 z m 196 63 l 196 318 b 124 390 196 358 164 390 b 51 318 83 390 51 358 l 51 63 b 124 -10 51 22 83 -10 b 196 63 164 -10 196 22 z "},"−":{"ha":624,"x_min":0,"x_max":0,"o":"m 601 379 b 529 451 601 419 569 451 l 96 451 b 22 379 56 451 22 419 b 96 307 22 339 56 307 l 529 307 b 601 379 569 307 601 339 z "},"×":{"ha":618,"x_min":0,"x_max":0,"o":"m 593 158 b 571 210 592 178 585 196 l 411 369 l 546 504 b 568 556 561 518 568 538 b 546 607 568 574 561 593 b 496 628 532 621 514 628 b 444 607 476 628 458 621 l 310 472 l 174 607 b 122 628 160 621 142 628 b 72 607 104 628 86 621 b 50 556 57 593 50 574 b 72 504 50 538 57 518 l 207 369 l 47 210 b 26 158 33 196 26 176 b 47 107 26 140 33 121 b 99 86 61 93 79 86 b 149 107 117 86 135 93 l 310 267 l 469 107 b 521 86 483 93 503 86 l 522 86 b 593 158 561 86 593 119 z "},"Š":{"ha":617,"x_min":0,"x_max":0,"o":"m 544 1113 b 483 1174 544 1146 517 1174 b 450 1164 471 1174 460 1171 l 322 1082 l 193 1164 b 161 1174 183 1171 172 1174 b 99 1113 126 1174 99 1146 b 128 1061 99 1092 108 1072 l 289 958 b 322 949 300 951 311 949 b 356 958 333 949 346 951 l 515 1061 b 544 1113 535 1072 544 1092 z m 593 246 b 394 522 593 371 501 467 b 269 569 360 540 318 556 b 179 660 226 581 179 610 b 304 751 179 724 249 751 b 468 710 350 751 413 736 b 501 701 479 704 490 701 b 581 779 546 701 581 736 b 538 850 581 808 564 836 b 304 907 450 892 365 907 l 301 907 b 22 660 160 907 24 813 b 229 418 22 536 115 450 b 333 378 268 408 304 394 b 438 246 382 351 438 306 b 306 140 438 175 368 140 b 147 193 258 140 203 158 b 107 204 135 200 121 204 b 40 167 81 204 54 190 b 29 126 32 154 29 140 b 67 60 29 100 42 74 b 310 -15 149 10 231 -15 b 593 246 457 -15 593 89 z "},"!":{"ha":253,"x_min":0,"x_max":0,"o":"m 219 269 l 219 824 b 142 901 219 867 185 901 b 64 824 99 901 64 867 l 64 269 b 142 192 64 226 99 192 b 219 269 185 192 219 226 z m 226 72 b 142 157 226 118 189 157 b 58 72 96 157 58 118 b 142 -12 58 25 96 -12 b 226 72 189 -12 226 25 z "},"\"":{"ha":382,"x_min":0,"x_max":0,"o":"m 357 657 l 357 828 b 285 901 357 868 325 901 b 213 828 244 901 213 868 l 213 657 b 285 585 213 617 244 585 b 357 657 325 585 357 617 z m 169 657 l 169 828 b 97 901 169 868 138 901 b 25 828 57 901 25 868 l 25 657 b 97 585 25 617 57 585 b 169 657 138 585 169 617 z "},"#":{"ha":792,"x_min":0,"x_max":0,"o":"m 775 694 b 703 768 775 735 743 768 l 653 768 l 665 806 b 669 831 668 814 669 822 b 596 901 669 869 639 901 b 528 853 567 901 539 882 l 499 767 l 415 767 l 429 806 b 433 829 432 814 433 822 b 360 901 433 868 401 901 b 292 853 331 901 303 882 l 263 767 l 168 767 b 96 694 128 767 96 735 b 168 622 96 656 128 622 l 213 622 l 185 540 l 89 540 b 17 468 49 540 17 508 b 89 396 17 428 49 396 l 135 396 l 111 328 b 107 304 108 321 107 313 b 179 232 107 265 138 232 b 247 281 208 232 238 251 l 288 396 l 371 396 l 347 328 b 343 304 344 321 343 313 b 415 232 343 265 374 232 b 483 281 446 232 474 251 l 524 396 l 624 396 b 696 468 664 396 696 428 b 624 540 696 508 664 540 l 574 540 l 601 622 l 703 622 b 775 694 743 622 775 656 z m 449 622 l 421 540 l 338 540 l 365 622 z "},"$":{"ha":492,"x_min":0,"x_max":0,"o":"m 460 328 b 240 544 460 435 386 507 b 178 589 217 550 178 564 b 236 624 178 608 197 624 b 331 593 264 624 296 613 b 365 583 342 586 354 583 b 429 621 392 583 417 597 b 439 656 435 632 439 644 b 401 719 439 681 425 706 b 311 754 371 736 343 747 l 311 828 b 239 901 311 868 279 901 b 167 828 199 901 167 868 l 167 754 b 33 589 90 736 33 679 b 204 404 33 500 97 431 b 314 328 314 376 314 342 b 254 283 314 303 292 283 b 143 328 214 283 163 307 b 92 349 129 342 110 349 b 40 329 72 349 54 343 b 18 276 26 314 18 296 b 39 226 18 258 25 240 b 167 158 69 196 115 172 l 167 63 b 239 -10 167 22 199 -10 b 311 63 279 -10 311 22 l 311 154 b 460 328 400 174 460 242 z "},"%":{"ha":1006,"x_min":0,"x_max":0,"o":"m 978 336 b 825 503 978 426 922 503 b 519 149 664 503 519 303 b 674 -17 519 60 578 -17 b 978 336 832 -17 978 183 z m 850 825 b 771 903 850 865 817 903 b 708 869 747 903 724 892 l 172 113 b 157 67 163 97 157 82 b 238 -11 157 26 190 -11 b 300 22 261 -11 285 1 l 836 781 b 850 825 846 794 850 810 z m 486 739 b 333 906 486 829 431 906 b 28 550 172 906 28 704 b 182 386 28 461 86 386 b 486 739 340 386 486 586 z m 835 333 b 819 271 835 317 829 294 b 743 164 801 226 772 189 b 682 129 715 140 694 129 b 671 133 676 129 674 131 b 663 156 665 138 663 144 b 678 217 663 169 668 192 b 753 322 696 261 725 297 b 817 358 783 347 804 358 b 835 333 829 358 835 349 z m 343 735 b 328 672 343 719 338 697 b 251 567 310 628 281 592 b 190 532 224 543 204 532 b 179 536 185 532 182 533 b 171 557 174 540 171 547 b 188 618 171 572 176 593 b 261 724 204 663 233 699 b 325 761 292 750 313 761 b 343 735 338 761 343 751 z "},"&":{"ha":633,"x_min":0,"x_max":0,"o":"m 610 215 b 538 288 610 257 578 288 b 522 286 533 288 528 288 b 282 253 411 261 335 253 b 256 254 272 253 264 254 b 168 289 196 257 168 269 b 239 353 168 308 192 329 b 399 399 276 372 329 389 l 535 418 b 597 490 571 424 597 454 b 597 500 597 493 597 497 b 525 563 592 536 560 563 b 515 561 522 563 518 563 b 306 528 446 551 374 544 b 281 524 296 525 288 524 b 253 543 263 524 253 532 b 275 581 253 553 261 567 b 486 640 308 611 376 640 b 526 639 499 640 513 639 l 531 639 b 603 707 569 638 601 668 l 603 711 b 535 783 604 749 574 781 b 485 785 518 785 501 785 b 438 783 468 785 453 785 l 438 833 b 365 907 438 874 404 907 b 292 833 325 907 292 874 l 292 756 b 108 539 200 721 108 649 b 131 458 108 510 115 483 b 22 283 61 413 22 351 b 283 108 22 143 168 107 l 292 108 l 292 58 b 365 -15 292 18 325 -15 b 438 58 404 -15 438 18 l 438 122 b 554 144 474 128 513 136 b 610 215 588 153 610 183 z "},"'":{"ha":194,"x_min":0,"x_max":0,"o":"m 169 657 l 169 828 b 97 901 169 868 138 901 b 25 828 57 901 25 868 l 25 657 b 97 585 25 617 57 585 b 169 657 138 585 169 617 z "},"(":{"ha":421,"x_min":0,"x_max":0,"o":"m 403 -76 b 363 -10 403 -49 388 -24 b 171 365 231 67 171 218 b 379 822 171 531 244 692 b 403 879 394 838 403 858 b 324 956 403 924 368 956 b 269 933 304 956 285 949 b 15 368 106 775 15 572 b 285 -144 15 164 103 -40 b 325 -156 297 -151 311 -156 b 403 -76 368 -156 403 -119 z "},")":{"ha":421,"x_min":0,"x_max":0,"o":"m 407 368 b 151 935 407 572 315 775 b 97 956 136 949 117 956 b 19 879 54 956 19 924 b 43 822 19 858 26 838 b 250 365 176 692 250 531 b 58 -10 250 218 190 67 b 19 -76 33 -24 19 -49 b 96 -156 19 -119 53 -156 b 136 -144 110 -156 124 -151 b 407 368 318 -40 407 164 z "},"*":{"ha":424,"x_min":0,"x_max":0,"o":"m 414 725 b 356 783 414 757 388 783 l 328 783 l 346 811 b 356 843 353 821 356 832 b 331 892 356 863 347 881 b 297 901 319 899 308 901 b 249 875 279 901 260 893 l 215 824 l 182 875 b 132 901 169 893 151 901 b 100 892 122 901 110 899 b 74 843 83 881 74 863 b 83 811 74 832 78 821 l 103 782 l 67 782 b 10 722 35 782 8 756 b 68 665 10 690 36 665 l 110 665 l 88 632 b 78 600 82 622 78 611 b 104 551 78 581 88 563 b 136 542 114 544 125 542 b 185 568 156 542 174 550 l 215 613 l 244 568 b 294 542 257 550 275 542 b 326 551 306 542 317 544 b 353 600 343 563 353 581 b 343 632 353 611 349 622 l 319 667 l 357 667 b 414 725 389 667 415 693 z "},"+":{"ha":651,"x_min":0,"x_max":0,"o":"m 626 379 b 553 451 626 419 593 451 l 399 451 l 399 625 b 325 697 399 664 365 697 b 253 625 286 697 253 664 l 253 451 l 93 451 b 21 379 53 451 21 419 b 93 307 21 339 53 307 l 253 307 l 253 140 b 325 68 253 100 286 68 b 399 140 365 68 399 100 l 399 307 l 553 307 b 626 379 593 307 626 339 z "},",":{"ha":224,"x_min":0,"x_max":0,"o":"m 208 33 b 119 157 208 114 174 157 b 35 72 72 157 35 118 b 69 3 35 43 49 18 b 24 -64 61 -18 44 -46 b 1 -114 8 -76 1 -96 b 68 -181 1 -150 32 -181 b 113 -164 85 -181 100 -175 b 208 33 163 -119 208 -39 z "},"-":{"ha":406,"x_min":0,"x_max":0,"o":"m 369 346 b 292 424 369 389 335 424 l 114 424 b 36 346 71 424 36 389 b 114 268 36 303 71 268 l 292 268 b 369 346 335 268 369 303 z "},".":{"ha":225,"x_min":0,"x_max":0,"o":"m 204 72 b 119 157 204 118 167 157 b 36 72 74 157 36 118 b 119 -12 36 25 74 -12 b 204 72 167 -12 204 25 z "},"/":{"ha":729,"x_min":0,"x_max":0,"o":"m 711 825 b 632 903 711 867 678 903 b 569 869 608 903 585 892 l 33 113 b 18 65 22 97 18 82 b 99 -11 18 25 51 -11 b 160 22 122 -11 146 1 l 697 781 b 711 825 707 794 711 810 z "},":":{"ha":225,"x_min":0,"x_max":0,"o":"m 204 449 b 119 533 204 496 167 533 b 36 449 74 533 36 496 b 119 364 36 403 74 364 b 204 449 167 364 204 403 z m 204 193 b 119 278 204 240 167 278 b 36 193 74 278 36 240 b 119 108 36 146 74 108 b 204 193 167 108 204 146 z "},";":{"ha":225,"x_min":0,"x_max":0,"o":"m 204 449 b 119 533 204 496 167 533 b 36 449 74 533 36 496 b 119 364 36 403 74 364 b 204 449 167 364 204 403 z m 208 151 b 119 275 208 232 174 275 b 35 190 72 275 35 238 b 69 122 35 163 49 138 b 24 56 61 101 44 72 b 1 6 8 42 1 24 b 68 -62 1 -32 32 -62 b 113 -46 85 -62 100 -57 b 208 151 163 -1 208 81 z "},"<":{"ha":619,"x_min":0,"x_max":0,"o":"m 588 85 b 554 146 588 110 575 132 l 229 353 l 554 560 b 588 621 575 572 588 596 b 517 693 588 660 556 693 b 476 682 503 693 489 689 l 54 414 b 21 353 33 400 21 378 b 54 292 21 328 33 304 l 476 24 b 514 13 489 17 501 13 b 588 85 554 13 588 46 z "},"=":{"ha":563,"x_min":0,"x_max":0,"o":"m 531 465 b 458 539 531 506 499 539 l 104 539 b 32 465 64 539 32 506 b 104 393 32 426 64 393 l 458 393 b 531 465 499 393 531 426 z m 531 233 b 458 306 531 274 499 306 l 104 306 b 32 233 64 306 32 274 b 104 161 32 193 64 161 l 458 161 b 531 233 499 161 531 193 z "},">":{"ha":619,"x_min":0,"x_max":0,"o":"m 599 353 b 564 414 599 378 586 400 l 143 682 b 103 693 131 689 117 693 b 32 621 64 693 32 660 b 65 560 32 596 43 572 l 390 353 l 65 146 b 32 85 43 132 32 110 b 104 13 32 46 64 13 b 143 24 118 13 131 17 l 564 292 b 599 353 586 304 599 328 z "},"?":{"ha":629,"x_min":0,"x_max":0,"o":"m 613 647 b 328 906 613 800 476 906 b 61 826 247 906 125 865 b 22 761 38 813 22 788 b 100 682 22 715 60 682 b 140 693 114 682 128 685 b 326 754 181 715 275 754 b 457 657 404 754 457 718 b 335 531 457 615 418 557 b 157 271 221 493 157 414 l 157 268 b 235 189 157 225 192 189 b 313 268 278 189 313 225 l 313 271 b 386 383 313 349 332 364 b 613 647 499 422 613 517 z m 321 72 b 236 157 321 118 282 157 b 151 72 189 157 151 118 b 236 -12 151 25 189 -12 b 321 72 282 -12 321 25 z "},"@":{"ha":1211,"x_min":0,"x_max":0,"o":"m 1181 528 b 681 906 1181 715 1014 906 b 21 381 318 906 21 711 b 517 -17 21 99 268 -17 b 819 36 564 -17 715 -3 b 874 106 857 51 874 79 b 801 175 874 142 843 175 b 768 169 790 175 779 174 b 517 119 696 142 603 119 b 164 379 321 119 164 199 b 681 771 164 639 415 771 b 1036 528 936 771 1036 638 b 897 325 1036 417 979 325 b 831 403 856 325 831 356 b 853 507 831 431 840 469 b 889 610 865 544 879 582 b 892 631 890 617 892 624 b 831 700 892 663 868 693 b 704 711 786 707 744 711 b 250 382 522 711 250 603 b 454 200 250 272 336 200 b 715 297 529 200 618 228 b 897 197 753 233 819 197 b 1181 528 1090 197 1181 375 z m 728 581 b 693 457 714 540 700 497 b 456 336 594 367 507 336 b 393 385 410 336 393 356 b 706 581 393 453 496 581 b 728 581 711 581 718 581 z "},"A":{"ha":876,"x_min":0,"x_max":0,"o":"m 847 68 b 842 99 847 78 846 89 l 514 857 b 440 904 500 888 471 904 b 363 853 408 904 378 886 l 38 99 b 31 68 33 89 31 78 b 108 -11 31 24 65 -11 b 181 36 139 -11 168 7 l 256 208 l 624 208 l 699 36 b 769 -11 711 7 739 -11 b 847 68 813 -11 847 24 z m 561 354 l 318 354 l 439 636 z "},"B":{"ha":832,"x_min":0,"x_max":0,"o":"m 801 406 b 568 644 801 542 692 624 b 590 718 582 667 590 692 b 374 906 590 842 486 906 b 107 835 307 907 221 889 b 64 764 81 821 64 794 l 64 68 b 143 -14 64 22 100 -14 b 153 -14 147 -14 150 -14 b 801 406 368 10 801 118 z m 435 704 b 364 632 435 675 407 640 b 219 593 315 622 274 613 l 219 714 b 371 751 285 740 335 751 b 435 704 417 751 435 732 z m 646 407 b 219 142 646 328 519 199 l 219 439 b 482 499 322 481 410 499 b 646 407 536 499 646 481 z "},"C":{"ha":781,"x_min":0,"x_max":0,"o":"m 753 172 b 674 251 753 217 718 251 b 629 236 658 251 643 246 b 389 142 543 174 460 142 b 189 350 269 142 189 232 b 681 751 189 597 481 717 b 746 828 719 757 746 790 b 668 906 746 871 710 906 b 654 904 664 906 658 906 b 33 350 371 856 33 681 b 385 -14 33 146 183 -14 b 721 110 478 -14 588 13 b 753 172 742 125 753 150 z "},"D":{"ha":849,"x_min":0,"x_max":0,"o":"m 814 549 b 425 906 814 772 636 906 b 111 832 329 906 222 882 b 64 761 82 819 64 792 l 64 64 b 142 -15 64 19 100 -15 b 156 -14 146 -15 150 -14 b 814 549 439 35 814 213 z m 657 551 b 219 143 657 422 521 221 l 219 708 b 425 750 294 736 361 750 b 657 551 547 750 657 686 z "},"E":{"ha":607,"x_min":0,"x_max":0,"o":"m 575 78 b 497 156 575 121 540 156 l 219 156 l 219 429 l 468 429 b 547 507 511 429 547 464 b 468 585 547 550 511 585 l 219 585 l 219 736 l 492 736 b 569 815 535 736 569 772 b 492 893 569 858 535 893 l 142 893 b 64 815 99 893 64 858 l 64 78 b 142 0 64 35 99 0 l 497 0 b 575 78 540 0 575 35 z "},"F":{"ha":608,"x_min":0,"x_max":0,"o":"m 576 814 b 499 892 576 857 542 892 l 142 892 b 64 814 99 892 64 857 l 64 69 b 142 -8 64 26 99 -8 b 219 69 185 -8 219 26 l 219 429 l 456 429 b 533 507 499 429 533 464 b 456 585 533 550 499 585 l 219 585 l 219 735 l 499 735 b 576 814 542 735 576 771 z "},"G":{"ha":811,"x_min":0,"x_max":0,"o":"m 754 68 l 754 381 b 676 458 754 424 719 458 l 457 458 b 379 381 414 458 379 424 b 457 303 379 338 414 303 l 599 303 l 599 228 b 379 138 533 179 464 138 b 189 336 263 138 189 219 b 683 753 188 589 474 717 b 749 828 721 758 749 790 b 671 907 749 874 714 907 b 657 906 667 907 661 907 b 33 335 363 856 33 672 b 358 -14 33 146 165 -14 b 600 57 438 -14 517 10 b 676 -10 606 17 639 -10 b 754 68 719 -10 754 25 z "},"H":{"ha":796,"x_min":0,"x_max":0,"o":"m 732 69 l 732 821 b 654 900 732 864 697 900 b 576 821 611 900 576 864 l 576 583 l 219 583 l 219 821 b 142 900 219 864 185 900 b 64 821 99 900 64 864 l 64 69 b 142 -8 64 26 99 -8 b 219 69 185 -8 219 26 l 219 438 l 576 438 l 576 69 b 654 -8 576 26 611 -8 b 732 69 697 -8 732 26 z "},"I":{"ha":283,"x_min":0,"x_max":0,"o":"m 219 69 l 219 822 b 142 900 219 865 185 900 b 64 822 99 900 64 865 l 64 69 b 142 -8 64 26 99 -8 b 219 69 185 -8 219 26 z "},"J":{"ha":656,"x_min":0,"x_max":0,"o":"m 594 338 l 594 821 b 517 900 594 864 560 900 b 438 821 474 900 438 864 l 438 338 b 272 142 438 231 385 142 b 153 189 226 142 182 158 b 96 213 138 204 115 213 b 18 135 53 213 18 178 b 40 81 18 115 26 96 b 269 -14 99 19 181 -14 b 594 338 464 -14 594 140 z "},"K":{"ha":790,"x_min":0,"x_max":0,"o":"m 756 68 b 735 122 756 88 749 107 l 374 501 b 661 765 374 501 449 571 b 686 824 678 782 686 803 b 608 901 686 869 649 901 b 556 881 590 901 571 896 l 219 565 l 219 821 b 142 900 219 864 185 900 b 64 821 99 900 64 864 l 64 68 b 142 -11 64 25 99 -11 b 219 68 185 -11 219 25 l 219 443 l 622 15 b 676 -10 638 -3 657 -10 b 756 68 717 -10 756 22 z "},"L":{"ha":588,"x_min":0,"x_max":0,"o":"m 557 78 b 478 156 557 121 521 156 l 219 156 l 219 822 b 142 901 219 865 185 901 b 64 822 99 901 64 865 l 64 78 b 142 0 64 35 99 0 l 478 0 b 557 78 521 0 557 35 z "},"M":{"ha":993,"x_min":0,"x_max":0,"o":"m 931 68 l 931 828 b 853 906 931 871 897 906 b 789 871 824 906 803 893 l 497 440 l 206 871 b 142 906 190 893 167 906 b 63 828 97 906 63 871 l 63 68 b 140 -10 63 25 97 -10 b 218 68 183 -10 218 25 l 218 582 l 432 258 b 496 221 449 233 472 221 b 561 258 521 221 544 233 l 775 582 l 775 68 b 853 -10 775 25 810 -10 b 931 68 896 -10 931 25 z "},"N":{"ha":792,"x_min":0,"x_max":0,"o":"m 728 64 l 728 824 b 650 901 728 867 693 901 b 572 824 607 901 572 867 l 572 321 b 207 872 572 321 421 551 b 143 907 192 894 168 907 b 64 829 100 907 64 874 l 64 68 b 142 -11 64 25 99 -11 b 219 68 185 -11 219 25 l 219 572 b 586 21 219 572 371 342 b 650 -14 600 -1 624 -14 b 728 64 692 -14 728 21 z "},"O":{"ha":872,"x_min":0,"x_max":0,"o":"m 839 535 b 515 906 840 728 724 906 b 32 354 239 906 32 614 b 356 -15 32 163 149 -15 b 839 535 632 -15 838 278 z m 683 536 b 356 142 683 365 542 142 b 189 353 239 142 189 250 b 515 750 189 531 329 750 b 683 536 633 750 683 640 z "},"P":{"ha":718,"x_min":0,"x_max":0,"o":"m 694 665 b 400 907 694 828 550 907 b 107 826 314 907 211 879 b 64 757 81 814 64 786 l 64 69 b 142 -8 64 26 99 -8 b 219 69 185 -8 219 26 l 219 299 b 694 665 411 331 694 431 z m 539 664 b 219 444 539 535 314 463 l 219 707 b 407 750 296 739 357 750 b 539 664 460 750 539 731 z "},"Q":{"ha":872,"x_min":0,"x_max":0,"o":"m 890 -15 b 869 35 890 4 883 21 l 721 190 b 839 535 794 292 839 417 b 515 906 840 728 724 906 b 32 354 239 906 32 614 b 356 -15 32 163 149 -15 b 622 85 456 -15 547 24 l 764 -65 b 817 -87 779 -79 797 -87 b 890 -15 858 -87 890 -56 z m 683 536 b 611 307 683 463 657 378 l 556 364 b 504 386 542 379 522 386 b 431 315 463 386 431 356 b 450 265 431 297 436 279 l 514 199 b 356 142 468 163 414 142 b 189 353 239 142 189 250 b 515 750 189 531 329 750 b 683 536 633 750 683 640 z "},"R":{"ha":756,"x_min":0,"x_max":0,"o":"m 739 64 b 718 115 739 82 732 101 b 453 401 563 286 453 401 b 693 669 581 436 693 533 b 417 906 693 822 556 906 b 103 813 322 906 215 875 b 64 744 79 799 64 772 l 64 68 b 142 -10 64 25 99 -10 b 219 68 185 -10 219 25 l 219 697 b 415 750 299 735 363 750 b 538 672 486 750 538 721 b 317 513 538 572 393 528 b 253 428 276 504 253 467 b 274 371 253 407 260 386 l 604 11 b 661 -14 619 -6 639 -14 b 739 64 706 -14 739 21 z "},"S":{"ha":617,"x_min":0,"x_max":0,"o":"m 593 246 b 394 522 593 371 501 467 b 269 569 360 540 318 556 b 179 660 226 581 179 610 b 304 751 179 724 249 751 b 468 710 350 751 413 736 b 501 701 479 704 490 701 b 581 779 546 701 581 736 b 538 850 581 808 564 836 b 304 907 450 892 365 907 l 301 907 b 22 660 160 907 24 813 b 229 418 22 536 115 450 b 333 378 268 408 304 394 b 438 246 382 351 438 306 b 306 140 438 175 368 140 b 147 193 258 140 203 158 b 107 204 135 200 121 204 b 40 167 81 204 54 190 b 29 126 32 154 29 140 b 67 60 29 100 42 74 b 310 -15 149 10 231 -15 b 593 246 457 -15 593 89 z "},"T":{"ha":731,"x_min":0,"x_max":0,"o":"m 706 814 b 628 892 706 857 671 892 l 103 892 b 25 814 60 892 25 857 b 103 735 25 771 60 735 l 288 735 l 288 67 b 365 -11 288 24 322 -11 b 443 67 408 -11 443 24 l 443 735 l 628 735 b 706 814 671 735 706 771 z "},"U":{"ha":796,"x_min":0,"x_max":0,"o":"m 732 367 l 732 822 b 654 901 732 865 697 901 b 576 822 611 901 576 865 l 576 367 b 397 142 576 221 521 142 b 219 367 275 142 219 221 l 219 822 b 142 901 219 865 185 901 b 64 822 99 901 64 865 l 64 367 b 397 -15 64 135 188 -15 b 732 367 608 -15 732 135 z "},"V":{"ha":865,"x_min":0,"x_max":0,"o":"m 839 822 b 763 900 839 865 806 900 b 690 853 732 900 703 883 l 432 254 l 174 853 b 101 900 161 883 132 900 b 25 822 60 900 25 865 b 31 792 25 813 26 801 l 357 36 b 433 -15 371 1 400 -15 b 507 36 465 -15 493 3 l 833 792 b 839 822 838 801 839 813 z "},"W":{"ha":1256,"x_min":0,"x_max":0,"o":"m 1231 822 b 1153 900 1231 865 1196 900 b 1081 853 1122 900 1093 883 l 822 254 l 565 853 b 492 900 551 883 522 900 b 415 822 450 900 415 865 b 422 792 415 813 417 801 l 543 511 l 432 254 l 174 853 b 101 900 161 883 132 900 b 24 822 58 900 24 865 b 31 792 24 813 26 801 l 357 36 b 433 -15 371 1 400 -15 b 507 36 465 -15 493 3 l 628 314 l 747 36 b 824 -15 763 1 792 -15 b 899 36 856 -15 885 3 l 1224 792 b 1231 822 1228 801 1231 813 z "},"X":{"ha":817,"x_min":0,"x_max":0,"o":"m 789 65 b 774 113 789 82 785 99 l 504 488 l 714 779 b 729 824 724 793 729 808 b 651 903 729 868 696 903 b 588 871 626 903 603 892 l 408 621 l 229 869 b 165 903 214 890 190 903 b 88 824 122 903 88 868 b 103 779 88 808 93 793 l 313 488 l 43 113 b 29 68 33 99 29 83 b 106 -11 29 24 63 -11 b 169 22 129 -11 154 0 l 408 354 l 647 22 b 713 -11 663 0 688 -11 b 789 65 753 -11 789 24 z "},"Y":{"ha":753,"x_min":0,"x_max":0,"o":"m 729 824 b 651 903 729 868 694 903 b 588 871 628 903 603 893 l 379 586 l 163 872 b 99 903 146 893 122 903 b 22 825 57 903 22 868 b 38 778 22 808 26 792 l 301 428 l 301 68 b 381 -10 301 25 338 -10 b 458 68 424 -10 458 25 l 458 431 l 714 779 b 729 824 724 793 729 808 z "},"Z":{"ha":697,"x_min":0,"x_max":0,"o":"m 675 79 b 597 157 675 122 640 157 l 244 157 b 638 771 244 157 346 317 b 650 813 646 783 650 799 b 572 890 650 856 615 890 l 133 890 b 54 813 90 890 54 856 b 133 735 54 769 90 735 l 429 735 b 36 121 429 735 328 575 b 24 79 28 108 24 93 b 101 1 24 36 58 1 l 597 1 b 675 79 640 1 675 36 z "},"[":{"ha":346,"x_min":0,"x_max":0,"o":"m 331 -135 b 256 -58 331 -94 299 -58 l 153 -58 l 153 860 l 256 860 b 331 935 299 860 331 896 b 256 1011 331 975 299 1011 l 76 1011 b 0 935 32 1011 0 975 l 0 -135 b 76 -210 0 -174 32 -210 l 256 -210 b 331 -135 299 -210 331 -174 z "},"\\":{"ha":708,"x_min":0,"x_max":0,"o":"m 683 68 b 669 111 683 83 678 99 l 174 869 b 106 907 158 893 133 907 b 25 825 61 907 25 869 b 39 781 25 810 29 794 l 533 24 b 601 -14 549 0 575 -14 b 683 68 647 -14 683 22 z "},"]":{"ha":346,"x_min":0,"x_max":0,"o":"m 346 -135 l 346 935 b 269 1011 346 975 314 1011 l 90 1011 b 14 935 46 1011 14 975 b 90 860 14 896 46 860 l 193 860 l 193 -58 l 90 -58 b 14 -135 46 -58 14 -94 b 90 -210 14 -174 46 -210 l 269 -210 b 346 -135 314 -210 346 -174 z "},"^":{"ha":669,"x_min":0,"x_max":0,"o":"m 650 425 b 639 464 650 439 646 453 l 403 869 b 335 907 388 893 363 907 b 267 869 307 907 281 893 l 29 465 b 18 425 22 453 18 439 b 97 347 18 382 54 347 b 164 386 125 347 150 361 l 335 675 l 504 385 b 572 347 518 361 544 347 b 650 425 615 347 650 382 z "},"_":{"ha":706,"x_min":0,"x_max":0,"o":"m 786 -129 b 706 -47 786 -83 750 -47 l 0 -47 b -81 -129 -44 -47 -81 -83 b 0 -210 -81 -174 -44 -210 l 706 -210 b 786 -129 750 -210 786 -174 z "},"`":{"ha":614,"x_min":0,"x_max":0,"o":"m 435 756 b 408 806 435 775 426 793 l 267 904 b 231 915 256 911 243 915 b 171 853 197 915 171 886 b 197 803 171 835 181 815 l 339 706 b 374 694 350 697 363 694 b 435 756 408 694 435 721 z "},"a":{"ha":700,"x_min":0,"x_max":0,"o":"m 649 63 l 649 332 b 347 600 649 500 536 600 b 89 524 267 600 164 581 b 61 467 71 510 61 488 b 75 422 61 451 65 436 b 133 393 89 404 111 393 b 176 408 149 393 164 399 b 347 461 214 436 278 461 b 486 408 426 461 467 439 b 24 147 163 390 22 272 b 226 -15 24 67 79 -15 b 504 74 317 -15 419 17 l 504 63 b 576 -10 504 24 536 -10 b 649 63 617 -10 649 24 z m 504 229 b 235 126 404 161 324 126 b 178 157 197 126 178 139 b 504 276 178 239 451 276 z "},"b":{"ha":711,"x_min":0,"x_max":0,"o":"m 692 379 b 435 600 692 525 574 600 b 196 543 364 600 276 579 l 196 828 b 124 900 196 868 164 900 b 51 828 83 900 51 868 l 51 63 b 126 -14 51 19 85 -14 b 136 -14 131 -14 133 -14 b 692 379 335 11 692 128 z m 547 382 b 196 132 547 246 296 153 l 196 385 b 428 456 290 435 371 456 b 547 382 476 456 547 442 z "},"c":{"ha":699,"x_min":0,"x_max":0,"o":"m 668 146 b 594 218 668 188 633 218 b 561 210 583 218 572 215 b 296 131 453 151 363 131 b 168 210 246 131 168 146 b 603 454 168 364 499 442 b 665 528 639 458 665 489 b 594 599 665 568 633 599 b 585 599 590 599 588 599 b 24 208 386 574 24 465 b 294 -14 24 60 160 -14 b 629 82 394 -14 510 18 b 668 146 654 94 668 119 z "},"d":{"ha":713,"x_min":0,"x_max":0,"o":"m 660 64 l 660 829 b 588 901 660 869 628 901 b 515 829 547 901 515 869 l 515 592 b 24 197 322 558 25 433 l 24 193 b 257 -14 22 53 128 -14 b 515 65 326 -14 414 6 b 588 -8 515 24 546 -8 b 660 64 628 -8 660 25 z m 515 224 b 260 125 411 153 321 125 b 168 194 214 125 167 140 b 515 444 169 338 408 422 z "},"e":{"ha":719,"x_min":0,"x_max":0,"o":"m 693 450 b 501 599 693 554 592 599 b 22 228 297 599 22 461 b 294 -15 22 71 146 -15 b 621 76 390 -15 500 13 b 658 140 644 89 658 114 b 586 213 658 182 625 213 b 553 204 575 213 564 210 b 301 121 446 149 363 121 b 172 190 250 121 192 138 b 693 450 324 193 693 232 z m 538 442 b 197 314 538 383 340 321 b 497 460 254 404 393 460 l 500 460 b 538 442 525 460 538 453 z "},"f":{"ha":535,"x_min":0,"x_max":0,"o":"m 521 826 b 401 903 521 878 488 903 b 131 583 218 903 131 754 l 88 583 b 15 511 47 583 15 551 b 88 439 15 471 47 439 l 131 439 l 131 63 b 203 -10 131 24 163 -10 b 275 63 243 -10 275 24 l 275 439 l 407 439 b 479 511 447 439 479 471 b 407 583 479 551 447 583 l 275 583 b 403 758 275 671 301 758 l 404 758 b 449 754 419 758 433 754 b 521 826 490 754 521 788 z "},"g":{"ha":803,"x_min":0,"x_max":0,"o":"m 782 99 b 560 335 782 228 688 326 b 585 428 575 365 585 397 b 574 485 585 447 581 467 l 649 564 b 669 618 663 579 669 599 b 596 689 669 658 638 689 b 547 668 578 689 561 682 l 469 583 b 376 600 440 594 408 600 b 26 324 233 600 26 488 b 231 153 26 210 133 153 b 482 208 331 153 388 208 b 638 99 576 208 638 157 b 299 -108 638 -33 407 -108 b 188 -65 225 -108 188 -87 b 283 -28 188 -43 219 -28 b 357 -33 303 -28 328 -29 b 372 -35 363 -35 368 -35 b 440 31 414 -35 440 -7 b 379 99 440 65 419 93 b 285 107 346 104 314 107 l 282 107 b 43 -67 126 106 43 33 b 296 -254 43 -178 140 -253 b 782 99 488 -254 782 -135 z m 439 425 b 238 293 439 365 311 293 b 174 328 196 293 174 306 b 381 460 174 382 293 460 b 439 425 418 460 439 446 z "},"h":{"ha":663,"x_min":0,"x_max":0,"o":"m 611 63 l 611 310 b 364 599 611 490 519 599 b 196 524 297 599 239 571 l 196 828 b 124 901 196 868 164 901 b 51 828 83 901 51 868 l 51 63 b 124 -10 51 24 83 -10 b 196 63 164 -10 196 24 l 196 328 b 364 454 232 413 313 454 b 467 310 394 454 467 454 l 467 63 b 539 -10 467 24 499 -10 b 611 63 579 -10 611 24 z "},"i":{"ha":247,"x_min":0,"x_max":0,"o":"m 204 825 b 124 906 204 869 168 906 b 43 825 79 906 43 869 b 124 744 43 781 79 744 b 204 825 168 744 204 781 z m 196 64 l 196 525 b 124 597 196 565 164 597 b 51 525 83 597 51 565 l 51 64 b 124 -8 51 25 83 -8 b 196 64 164 -8 196 25 z "},"j":{"ha":257,"x_min":0,"x_max":0,"o":"m 214 825 b 133 906 214 869 178 906 b 53 825 89 906 53 869 b 133 744 53 781 89 744 b 214 825 178 744 214 781 z m 204 26 l 204 524 b 132 596 204 564 172 596 b 60 524 92 596 60 564 l 60 28 b -60 -107 60 -54 28 -107 b -112 -100 -76 -107 -94 -104 b -133 -97 -119 -97 -126 -97 b -203 -149 -164 -97 -193 -117 b -206 -169 -204 -156 -206 -162 b -153 -239 -206 -200 -185 -229 b -61 -251 -122 -247 -92 -251 b 204 26 107 -251 204 -137 z "},"k":{"ha":613,"x_min":0,"x_max":0,"o":"m 590 63 b 572 110 590 79 585 97 l 344 356 l 517 465 b 546 524 536 478 546 501 b 476 594 546 563 515 594 b 431 582 460 594 444 590 l 196 426 l 196 828 b 124 901 196 868 164 901 b 51 828 83 901 51 868 l 51 63 b 124 -10 51 22 83 -10 b 196 63 164 -10 196 22 l 196 304 l 464 14 b 518 -10 479 -3 496 -10 b 590 63 557 -10 590 22 z "},"l":{"ha":247,"x_min":0,"x_max":0,"o":"m 196 64 l 196 828 b 124 901 196 868 164 901 b 51 828 83 901 51 868 l 51 64 b 124 -8 51 25 83 -8 b 196 64 164 -8 196 25 z "},"m":{"ha":1060,"x_min":0,"x_max":0,"o":"m 1008 63 l 1008 310 b 761 599 1008 490 915 599 b 561 490 675 599 608 556 b 356 599 519 560 449 599 b 196 524 289 599 239 571 l 196 526 b 124 599 196 567 164 599 b 51 526 83 599 51 567 l 51 63 b 124 -10 51 24 83 -10 b 196 63 164 -10 196 24 l 196 328 b 356 454 232 413 304 454 b 458 310 386 454 458 454 l 458 63 b 531 -10 458 24 490 -10 b 603 63 571 -10 603 24 l 603 329 b 761 454 640 414 710 454 b 863 310 792 454 863 454 l 863 63 b 936 -10 863 24 896 -10 b 1008 63 975 -10 1008 24 z "},"n":{"ha":663,"x_min":0,"x_max":0,"o":"m 611 63 l 611 310 b 364 599 611 490 519 599 b 196 524 297 599 239 571 l 196 526 b 124 599 196 567 164 599 b 51 526 83 599 51 567 l 51 63 b 124 -10 51 24 83 -10 b 196 63 164 -10 196 24 l 196 328 b 364 454 232 413 313 454 b 467 310 394 454 467 454 l 467 63 b 539 -10 467 24 499 -10 b 611 63 579 -10 611 24 z "},"o":{"ha":639,"x_min":0,"x_max":0,"o":"m 613 371 b 394 601 613 500 528 601 b 24 213 201 601 22 401 b 242 -15 24 85 108 -15 b 613 371 435 -15 613 183 z m 468 372 b 242 129 468 264 354 129 b 168 215 188 129 168 167 b 394 457 168 322 285 457 b 468 372 446 457 468 421 z "},"p":{"ha":707,"x_min":0,"x_max":0,"o":"m 681 376 b 413 600 681 525 546 600 b 90 508 318 600 207 569 b 51 444 67 496 51 471 l 51 -176 b 124 -249 51 -217 83 -249 b 196 -176 164 -249 196 -217 l 196 -6 b 681 376 383 25 681 143 z m 536 376 b 196 129 536 244 289 150 l 196 399 b 410 456 283 440 356 456 b 536 376 461 456 536 439 z "},"q":{"ha":715,"x_min":0,"x_max":0,"o":"m 665 -176 l 665 522 b 589 600 665 565 631 600 b 579 599 586 600 583 599 b 24 206 382 575 24 458 b 282 -15 24 60 143 -15 b 519 51 353 -15 443 13 l 519 -176 b 593 -249 519 -215 553 -249 b 665 -176 632 -249 665 -215 z m 519 200 b 289 129 426 150 346 129 b 169 204 240 129 169 143 b 519 447 169 340 421 426 z "},"r":{"ha":522,"x_min":0,"x_max":0,"o":"m 506 482 b 488 528 506 499 499 515 b 336 600 446 574 393 600 b 196 522 272 600 219 563 b 124 594 194 563 163 594 b 50 522 83 594 50 563 l 50 63 b 124 -10 50 22 83 -10 b 196 63 163 -10 196 22 l 196 281 b 322 458 211 383 272 458 b 378 432 349 458 365 447 b 433 408 393 417 413 408 b 506 482 474 408 506 442 z "},"s":{"ha":492,"x_min":0,"x_max":0,"o":"m 460 165 b 240 381 460 272 386 344 b 178 426 217 388 178 400 b 236 461 178 446 197 461 b 331 429 264 461 296 449 b 365 421 342 424 354 421 b 429 458 392 421 417 433 b 439 493 435 469 439 481 b 401 556 439 518 425 543 b 225 599 347 586 299 599 b 33 426 122 599 33 538 b 204 240 33 336 97 268 b 314 165 314 213 314 178 b 254 121 314 140 292 121 b 143 164 214 121 163 143 b 92 186 129 179 110 186 b 40 165 72 186 54 179 b 18 114 26 151 18 133 b 39 64 18 96 25 78 b 254 -15 86 15 174 -15 b 460 165 372 -15 460 61 z "},"t":{"ha":528,"x_min":0,"x_max":0,"o":"m 506 61 b 433 135 506 103 474 135 b 422 133 429 135 426 133 b 390 131 413 132 401 131 b 274 263 308 131 274 168 l 274 440 l 418 440 b 490 513 458 440 490 472 b 418 585 490 553 458 585 l 274 585 l 274 774 b 201 846 274 814 242 846 b 129 774 161 846 129 814 l 129 585 l 93 585 b 21 513 53 585 21 553 b 93 440 21 472 53 440 l 129 440 l 129 263 b 388 -14 129 97 213 -14 b 506 61 461 -14 506 7 z "},"u":{"ha":664,"x_min":0,"x_max":0,"o":"m 613 60 l 613 522 b 539 594 613 563 579 594 b 467 522 500 594 467 563 l 467 258 b 299 132 431 174 350 132 b 196 275 268 132 196 132 l 196 522 b 124 594 196 563 164 594 b 51 522 83 594 51 563 l 51 275 b 299 -14 51 94 144 -14 b 467 63 365 -14 424 15 l 467 60 b 539 -12 467 19 500 -12 b 613 60 579 -12 613 19 z "},"v":{"ha":647,"x_min":0,"x_max":0,"o":"m 624 522 b 553 593 624 560 593 593 b 485 553 525 593 497 579 l 324 208 l 161 553 b 97 593 150 579 124 593 b 24 521 56 593 24 560 b 32 490 24 510 26 500 l 254 28 b 322 -17 267 0 293 -17 b 393 28 353 -17 379 0 l 615 490 b 624 522 621 500 624 511 z "},"w":{"ha":986,"x_min":0,"x_max":0,"o":"m 963 519 b 890 593 963 563 931 593 b 825 551 863 593 838 578 l 672 224 l 561 547 b 493 596 551 576 524 596 b 425 547 463 596 435 576 l 314 224 l 161 553 b 97 593 150 579 124 593 b 24 521 56 593 24 560 b 32 490 24 510 26 500 l 254 28 b 324 -15 268 1 292 -15 b 396 36 356 -15 385 4 l 493 308 l 590 36 b 661 -15 601 6 631 -15 b 732 29 692 -15 719 1 l 956 489 b 963 519 960 499 963 510 z "},"x":{"ha":558,"x_min":0,"x_max":0,"o":"m 535 63 b 521 107 535 78 531 93 l 378 303 l 506 479 b 521 521 515 492 521 506 b 447 594 521 563 489 594 b 389 564 425 594 403 583 l 279 410 l 169 564 b 111 594 156 583 133 594 b 39 522 71 594 39 563 b 53 479 39 507 43 492 l 182 303 l 38 106 b 24 63 29 93 24 78 b 97 -10 24 22 57 -10 b 156 21 119 -10 142 0 l 279 194 l 404 21 b 463 -8 418 1 440 -8 b 535 63 501 -8 535 24 z "},"y":{"ha":644,"x_min":0,"x_max":0,"o":"m 621 515 b 547 589 621 557 588 589 b 482 544 519 589 493 572 l 329 193 l 161 551 b 96 593 149 578 124 593 b 24 521 56 593 24 561 b 31 490 24 510 26 500 l 251 15 l 249 7 b 121 -108 214 -69 172 -108 b 89 -103 111 -108 100 -107 b 68 -100 82 -101 75 -100 b -4 -174 29 -100 -4 -132 b 49 -242 -4 -204 17 -233 b 124 -254 74 -250 99 -254 b 381 -50 231 -253 324 -181 l 614 488 b 621 515 618 496 621 506 z "},"z":{"ha":576,"x_min":0,"x_max":0,"o":"m 561 72 b 489 144 561 113 529 144 l 257 144 b 532 465 257 144 364 269 b 550 513 544 478 550 494 b 478 585 550 551 518 585 l 108 585 b 36 513 69 585 36 551 b 108 440 36 472 69 440 l 319 440 b 43 119 319 440 211 314 b 26 72 32 107 26 89 b 99 0 26 33 58 0 l 489 0 b 561 72 529 0 561 32 z "},"{":{"ha":479,"x_min":0,"x_max":0,"o":"m 474 -133 b 397 -58 474 -93 440 -58 l 374 -58 b 313 -57 353 -58 332 -58 b 207 39 239 -51 207 -36 b 243 285 207 124 243 201 b 192 401 243 328 228 378 b 243 518 229 428 243 475 b 207 764 243 601 207 679 b 251 849 207 822 228 839 b 361 861 281 860 324 861 b 397 861 374 861 386 861 b 474 936 440 861 474 896 b 397 1010 474 976 440 1010 b 53 764 161 1010 53 950 b 82 568 53 696 68 629 b 92 515 88 549 92 531 b 31 472 92 489 78 472 b -40 401 -8 472 -40 438 b 31 331 -40 364 -7 331 b 93 296 78 331 93 322 b 82 235 93 281 89 261 b 53 39 68 174 53 107 b 397 -208 53 -144 157 -208 b 474 -133 440 -208 474 -174 z "},"|":{"ha":247,"x_min":0,"x_max":0,"o":"m 196 64 l 196 828 b 124 901 196 868 164 901 b 51 828 83 901 51 868 l 51 64 b 124 -8 51 25 83 -8 b 196 64 164 -8 196 25 z "},"}":{"ha":479,"x_min":0,"x_max":0,"o":"m 521 401 b 449 472 521 438 488 472 b 389 515 401 472 389 489 b 397 568 389 531 393 549 b 426 764 413 629 426 696 b 83 1010 426 950 318 1010 b 6 936 39 1010 6 976 b 83 861 6 896 39 861 b 119 861 93 861 106 861 b 229 849 157 861 199 860 b 274 764 253 839 274 822 b 236 518 274 679 236 601 b 288 401 236 475 250 428 b 236 285 253 378 236 328 b 274 39 236 201 274 124 b 167 -57 274 -36 240 -51 b 106 -58 147 -58 126 -58 l 83 -58 b 6 -133 39 -58 6 -93 b 83 -208 6 -174 39 -208 b 426 39 324 -208 426 -144 b 397 235 426 107 413 174 b 386 296 390 261 386 281 b 449 331 386 322 401 331 b 521 401 486 331 521 364 z "},"~":{"ha":815,"x_min":0,"x_max":0,"o":"m 793 556 b 714 632 793 600 754 632 b 653 603 692 632 669 624 b 542 524 624 568 593 524 b 265 629 468 524 404 629 b 32 451 163 629 88 563 b 24 413 25 438 24 424 b 103 338 24 368 63 338 b 169 376 128 338 153 350 b 261 481 188 408 221 481 b 539 367 336 481 403 367 b 778 510 646 367 725 431 b 793 556 788 526 793 542 z "},"Ä":{"ha":876,"x_min":0,"x_max":0,"o":"m 625 1032 b 551 1104 625 1072 592 1104 b 478 1032 511 1104 478 1072 b 551 958 478 992 511 958 b 625 1032 592 958 625 992 z m 399 1032 b 325 1104 399 1072 365 1104 b 251 1032 285 1104 251 1072 b 325 958 251 992 285 958 b 399 1032 365 958 399 992 z m 847 68 b 842 99 847 78 846 89 l 514 857 b 440 904 500 888 471 904 b 363 853 408 904 378 886 l 38 99 b 31 68 33 89 31 78 b 108 -11 31 24 65 -11 b 181 36 139 -11 168 7 l 256 208 l 624 208 l 699 36 b 769 -11 711 7 739 -11 b 847 68 813 -11 847 24 z m 561 354 l 318 354 l 439 636 z "},"Å":{"ha":876,"x_min":0,"x_max":0,"o":"m 847 68 b 842 99 847 78 846 89 l 531 817 b 626 975 586 850 626 907 b 458 1129 626 1068 547 1129 b 250 939 354 1129 250 1047 b 342 801 250 875 288 825 l 38 99 b 31 68 33 89 31 78 b 108 -11 31 24 65 -11 b 181 36 139 -11 168 7 l 256 208 l 624 208 l 699 36 b 769 -11 711 7 739 -11 b 847 68 813 -11 847 24 z m 504 975 b 418 907 504 935 453 907 b 372 939 399 907 372 915 b 458 1007 372 979 424 1007 b 504 975 478 1007 504 999 z m 561 354 l 318 354 l 439 636 z "},"Ç":{"ha":781,"x_min":0,"x_max":0,"o":"m 753 172 b 674 251 753 217 718 251 b 629 236 658 251 643 246 b 389 142 543 174 460 142 b 189 350 269 142 189 232 b 681 751 189 597 481 717 b 746 828 719 757 746 790 b 668 906 746 871 710 906 b 654 904 664 906 658 906 b 33 350 371 856 33 681 b 349 -12 33 158 165 6 b 408 -58 356 -39 379 -58 b 433 -96 422 -58 433 -75 b 358 -150 433 -115 421 -139 b 307 -210 328 -154 307 -181 b 368 -271 307 -243 335 -271 b 551 -96 463 -271 551 -190 b 519 6 551 -58 540 -22 b 721 110 581 24 647 56 b 753 172 742 125 753 150 z "},"É":{"ha":607,"x_min":0,"x_max":0,"o":"m 510 1115 b 449 1176 510 1149 482 1176 b 413 1165 436 1176 424 1174 l 271 1068 b 244 1017 254 1056 244 1036 b 306 956 244 983 272 956 b 340 967 318 956 331 960 l 483 1065 b 510 1115 500 1076 510 1096 z m 575 78 b 497 156 575 121 540 156 l 219 156 l 219 429 l 468 429 b 547 507 511 429 547 464 b 468 585 547 550 511 585 l 219 585 l 219 736 l 492 736 b 569 815 535 736 569 772 b 492 893 569 858 535 893 l 142 893 b 64 815 99 893 64 858 l 64 78 b 142 0 64 35 99 0 l 497 0 b 575 78 540 0 575 35 z "},"Ñ":{"ha":792,"x_min":0,"x_max":0,"o":"m 651 1085 b 588 1147 651 1119 624 1147 b 540 1122 569 1147 553 1139 b 496 1089 525 1101 513 1089 b 419 1119 478 1089 457 1099 b 293 1161 388 1136 343 1161 b 149 1056 243 1161 192 1136 b 140 1026 143 1046 140 1036 b 203 965 140 993 169 965 b 256 997 225 965 244 978 b 294 1038 271 1025 279 1038 b 361 1011 313 1038 328 1029 b 496 967 394 993 440 967 b 639 1050 544 967 592 986 b 651 1085 647 1060 651 1072 z m 728 64 l 728 824 b 650 901 728 867 693 901 b 572 824 607 901 572 867 l 572 321 b 207 872 572 321 421 551 b 143 907 192 894 168 907 b 64 829 100 907 64 874 l 64 68 b 142 -11 64 25 99 -11 b 219 68 185 -11 219 25 l 219 572 b 586 21 219 572 371 342 b 650 -14 600 -1 624 -14 b 728 64 692 -14 728 21 z "},"Ö":{"ha":872,"x_min":0,"x_max":0,"o":"m 706 1032 b 632 1104 706 1072 672 1104 b 560 1032 592 1104 560 1072 b 632 958 560 992 592 958 b 706 1032 672 958 706 992 z m 479 1032 b 406 1104 479 1072 446 1104 b 333 1032 365 1104 333 1072 b 406 958 333 992 365 958 b 479 1032 446 958 479 992 z m 839 535 b 515 906 840 728 724 906 b 32 354 239 906 32 614 b 356 -15 32 163 149 -15 b 839 535 632 -15 838 278 z m 683 536 b 356 142 683 365 542 142 b 189 353 239 142 189 250 b 515 750 189 531 329 750 b 683 536 633 750 683 640 z "},"Ü":{"ha":796,"x_min":0,"x_max":0,"o":"m 583 1032 b 511 1104 583 1072 551 1104 b 438 1032 471 1104 438 1072 b 511 958 438 992 471 958 b 583 1032 551 958 583 992 z m 357 1032 b 285 1104 357 1072 325 1104 b 211 1032 244 1104 211 1072 b 285 958 211 992 244 958 b 357 1032 325 958 357 992 z m 732 367 l 732 822 b 654 901 732 865 697 901 b 576 822 611 901 576 865 l 576 367 b 397 142 576 221 521 142 b 219 367 275 142 219 221 l 219 822 b 142 901 219 865 185 901 b 64 822 99 901 64 865 l 64 367 b 397 -15 64 135 188 -15 b 732 367 608 -15 732 135 z "},"á":{"ha":700,"x_min":0,"x_max":0,"o":"m 518 853 b 458 915 519 886 492 915 b 422 904 446 915 433 911 l 281 806 b 254 756 264 793 254 775 b 315 694 254 721 282 694 b 350 706 328 694 340 697 l 492 803 b 518 853 510 815 518 835 z m 649 63 l 649 332 b 347 600 649 500 536 600 b 89 524 267 600 164 581 b 61 467 71 510 61 488 b 75 422 61 451 65 436 b 133 393 89 404 111 393 b 176 408 149 393 164 399 b 347 461 214 436 278 461 b 486 408 426 461 467 439 b 24 147 163 390 22 272 b 226 -15 24 67 79 -15 b 504 74 317 -15 419 17 l 504 63 b 576 -10 504 24 536 -10 b 649 63 617 -10 649 24 z m 504 229 b 235 126 404 161 324 126 b 178 157 197 126 178 139 b 504 276 178 239 451 276 z "},"à":{"ha":700,"x_min":0,"x_max":0,"o":"m 449 756 b 422 806 449 775 440 793 l 281 904 b 244 915 269 911 257 915 b 185 853 211 915 185 886 b 211 803 185 835 194 815 l 353 706 b 388 694 364 697 375 694 b 449 756 421 694 449 721 z m 649 63 l 649 332 b 347 600 649 500 536 600 b 89 524 267 600 164 581 b 61 467 71 510 61 488 b 75 422 61 451 65 436 b 133 393 89 404 111 393 b 176 408 149 393 164 399 b 347 461 214 436 278 461 b 486 408 426 461 467 439 b 24 147 163 390 22 272 b 226 -15 24 67 79 -15 b 504 74 317 -15 419 17 l 504 63 b 576 -10 504 24 536 -10 b 649 63 617 -10 649 24 z m 504 229 b 235 126 404 161 324 126 b 178 157 197 126 178 139 b 504 276 178 239 451 276 z "},"â":{"ha":700,"x_min":0,"x_max":0,"o":"m 557 760 b 528 811 557 779 547 799 l 367 914 b 333 924 356 919 344 924 b 300 914 322 924 310 919 l 140 811 b 111 760 121 799 111 779 b 172 699 111 725 139 699 b 206 708 185 699 196 701 l 333 789 l 463 708 b 494 699 472 701 483 699 b 557 760 529 699 557 725 z m 649 63 l 649 332 b 347 600 649 500 536 600 b 89 524 267 600 164 581 b 61 467 71 510 61 488 b 75 422 61 451 65 436 b 133 393 89 404 111 393 b 176 408 149 393 164 399 b 347 461 214 436 278 461 b 486 408 426 461 467 439 b 24 147 163 390 22 272 b 226 -15 24 67 79 -15 b 504 74 317 -15 419 17 l 504 63 b 576 -10 504 24 536 -10 b 649 63 617 -10 649 24 z m 504 229 b 235 126 404 161 324 126 b 178 157 197 126 178 139 b 504 276 178 239 451 276 z "},"ä":{"ha":700,"x_min":0,"x_max":0,"o":"m 519 833 b 447 906 519 874 488 906 b 374 833 407 906 374 874 b 447 760 374 793 407 760 b 519 833 488 760 519 793 z m 293 833 b 221 906 293 874 261 906 b 147 833 181 906 147 874 b 221 760 147 793 181 760 b 293 833 261 760 293 793 z m 649 63 l 649 332 b 347 600 649 500 536 600 b 89 524 267 600 164 581 b 61 467 71 510 61 488 b 75 422 61 451 65 436 b 133 393 89 404 111 393 b 176 408 149 393 164 399 b 347 461 214 436 278 461 b 486 408 426 461 467 439 b 24 147 163 390 22 272 b 226 -15 24 67 79 -15 b 504 74 317 -15 419 17 l 504 63 b 576 -10 504 24 536 -10 b 649 63 617 -10 649 24 z m 504 229 b 235 126 404 161 324 126 b 178 157 197 126 178 139 b 504 276 178 239 451 276 z "},"ã":{"ha":700,"x_min":0,"x_max":0,"o":"m 606 832 b 542 894 606 867 578 894 b 494 869 524 894 507 886 b 450 836 479 849 467 836 b 374 867 432 836 411 846 b 247 908 342 883 296 908 b 103 803 197 908 146 883 b 94 774 97 793 94 783 b 157 713 94 740 124 713 b 210 744 179 713 199 725 b 249 786 225 772 233 786 b 315 758 267 786 282 776 b 450 714 349 740 394 714 b 593 797 497 714 546 735 b 606 832 601 807 606 819 z m 649 63 l 649 332 b 347 600 649 500 536 600 b 89 524 267 600 164 581 b 61 467 71 510 61 488 b 75 422 61 451 65 436 b 133 393 89 404 111 393 b 176 408 149 393 164 399 b 347 461 214 436 278 461 b 486 408 426 461 467 439 b 24 147 163 390 22 272 b 226 -15 24 67 79 -15 b 504 74 317 -15 419 17 l 504 63 b 576 -10 504 24 536 -10 b 649 63 617 -10 649 24 z m 504 229 b 235 126 404 161 324 126 b 178 157 197 126 178 139 b 504 276 178 239 451 276 z "},"å":{"ha":700,"x_min":0,"x_max":0,"o":"m 536 853 b 368 1007 536 946 457 1007 b 160 818 264 1007 160 926 b 328 664 160 725 239 664 b 536 853 431 664 536 744 z m 649 63 l 649 332 b 347 600 649 500 536 600 b 89 524 267 600 164 581 b 61 467 71 510 61 488 b 75 422 61 451 65 436 b 133 393 89 404 111 393 b 176 408 149 393 164 399 b 347 461 214 436 278 461 b 486 408 426 461 467 439 b 24 147 163 390 22 272 b 226 -15 24 67 79 -15 b 504 74 317 -15 419 17 l 504 63 b 576 -10 504 24 536 -10 b 649 63 617 -10 649 24 z m 414 853 b 328 786 414 814 363 786 b 282 818 308 786 282 794 b 368 885 282 857 333 885 b 414 853 388 885 414 876 z m 504 229 b 235 126 404 161 324 126 b 178 157 197 126 178 139 b 504 276 178 239 451 276 z "},"ç":{"ha":699,"x_min":0,"x_max":0,"o":"m 668 146 b 594 218 668 188 633 218 b 561 210 583 218 572 215 b 296 131 453 151 363 131 b 168 210 246 131 168 146 b 603 454 168 364 499 442 b 665 528 639 458 665 489 b 594 599 665 568 633 599 b 585 599 590 599 588 599 b 24 208 386 574 24 465 b 294 -14 24 60 160 -14 l 296 -14 b 354 -58 303 -39 326 -58 b 379 -96 368 -58 379 -76 b 304 -150 379 -114 367 -139 b 253 -210 275 -154 253 -181 b 315 -271 253 -243 281 -271 b 497 -96 408 -271 497 -190 b 461 13 497 -57 485 -18 b 629 82 515 28 572 51 b 668 146 654 94 668 119 z "},"é":{"ha":719,"x_min":0,"x_max":0,"o":"m 613 853 b 553 915 613 886 586 915 b 517 904 540 915 528 911 l 375 806 b 349 756 358 793 349 775 b 410 694 349 721 376 694 b 444 706 422 694 435 697 l 586 803 b 613 853 604 815 613 835 z m 693 450 b 501 599 693 554 592 599 b 22 228 297 599 22 461 b 294 -15 22 71 146 -15 b 621 76 390 -15 500 13 b 658 140 644 89 658 114 b 586 213 658 182 625 213 b 553 204 575 213 564 210 b 301 121 446 149 363 121 b 172 190 250 121 192 138 b 693 450 324 193 693 232 z m 538 442 b 197 314 538 383 340 321 b 497 460 254 404 393 460 l 500 460 b 538 442 525 460 538 453 z "},"è":{"ha":719,"x_min":0,"x_max":0,"o":"m 517 756 b 490 806 517 775 507 793 l 349 904 b 313 915 338 911 325 915 b 251 853 279 915 251 886 b 278 803 251 835 261 815 l 421 706 b 456 694 431 697 443 694 b 517 756 489 694 517 721 z m 693 450 b 501 599 693 554 592 599 b 22 228 297 599 22 461 b 294 -15 22 71 146 -15 b 621 76 390 -15 500 13 b 658 140 644 89 658 114 b 586 213 658 182 625 213 b 553 204 575 213 564 210 b 301 121 446 149 363 121 b 172 190 250 121 192 138 b 693 450 324 193 693 232 z m 538 442 b 197 314 538 383 340 321 b 497 460 254 404 393 460 l 500 460 b 538 442 525 460 538 453 z "},"ê":{"ha":719,"x_min":0,"x_max":0,"o":"m 651 760 b 622 811 651 779 642 799 l 461 914 b 428 924 450 919 439 924 b 394 914 415 924 404 919 l 235 811 b 206 760 215 799 206 779 b 267 699 206 725 233 699 b 300 708 279 699 290 701 l 428 789 l 557 708 b 589 699 567 701 578 699 b 651 760 624 699 651 725 z m 693 450 b 501 599 693 554 592 599 b 22 228 297 599 22 461 b 294 -15 22 71 146 -15 b 621 76 390 -15 500 13 b 658 140 644 89 658 114 b 586 213 658 182 625 213 b 553 204 575 213 564 210 b 301 121 446 149 363 121 b 172 190 250 121 192 138 b 693 450 324 193 693 232 z m 538 442 b 197 314 538 383 340 321 b 497 460 254 404 393 460 l 500 460 b 538 442 525 460 538 453 z "},"ë":{"ha":719,"x_min":0,"x_max":0,"o":"m 614 833 b 542 906 614 874 582 906 b 468 833 501 906 468 874 b 542 760 468 793 501 760 b 614 833 582 760 614 793 z m 388 833 b 315 906 388 874 356 906 b 242 833 275 906 242 874 b 315 760 242 793 275 760 b 388 833 356 760 388 793 z m 693 450 b 501 599 693 554 592 599 b 22 228 297 599 22 461 b 294 -15 22 71 146 -15 b 621 76 390 -15 500 13 b 658 140 644 89 658 114 b 586 213 658 182 625 213 b 553 204 575 213 564 210 b 301 121 446 149 363 121 b 172 190 250 121 192 138 b 693 450 324 193 693 232 z m 538 442 b 197 314 538 383 340 321 b 497 460 254 404 393 460 l 500 460 b 538 442 525 460 538 453 z "},"í":{"ha":247,"x_min":0,"x_max":0,"o":"m 256 853 b 196 915 256 886 229 915 b 160 904 183 915 171 911 l 18 806 b -8 756 0 793 -8 775 b 53 694 -8 721 19 694 b 88 706 65 694 76 697 l 229 803 b 256 853 247 815 256 835 z m 196 64 l 196 525 b 124 597 196 565 164 597 b 51 525 83 597 51 565 l 51 64 b 124 -8 51 25 83 -8 b 196 64 164 -8 196 25 z "},"ì":{"ha":247,"x_min":0,"x_max":0,"o":"m 256 756 b 229 806 256 775 247 793 l 88 904 b 51 915 76 911 64 915 b -8 853 18 915 -8 886 b 18 803 -8 835 1 815 l 160 706 b 194 694 171 697 182 694 b 256 756 228 694 256 721 z m 196 64 l 196 525 b 124 597 196 565 164 597 b 51 525 83 597 51 565 l 51 64 b 124 -8 51 25 83 -8 b 196 64 164 -8 196 25 z "},"î":{"ha":247,"x_min":0,"x_max":0,"o":"m 346 760 b 318 811 346 779 336 799 l 156 914 b 122 924 146 919 135 924 b 90 914 111 924 100 919 l -71 811 b -99 760 -89 799 -99 779 b -37 699 -99 725 -72 699 b -4 708 -26 699 -15 701 l 122 789 l 251 708 b 285 699 263 701 274 699 b 346 760 318 699 346 725 z m 196 64 l 196 525 b 124 597 196 565 164 597 b 51 525 83 597 51 565 l 51 64 b 124 -8 51 25 83 -8 b 196 64 164 -8 196 25 z "},"ï":{"ha":247,"x_min":0,"x_max":0,"o":"m 303 833 b 231 906 303 874 271 906 b 157 833 190 906 157 874 b 231 760 157 793 190 760 b 303 833 271 760 303 793 z m 90 833 b 17 906 90 874 57 906 b -56 833 -24 906 -56 874 b 17 760 -56 793 -24 760 b 90 833 57 760 90 793 z m 196 64 l 196 525 b 124 597 196 565 164 597 b 51 525 83 597 51 565 l 51 64 b 124 -8 51 25 83 -8 b 196 64 164 -8 196 25 z "},"ñ":{"ha":663,"x_min":0,"x_max":0,"o":"m 586 832 b 524 894 586 867 558 894 b 476 869 506 894 488 886 b 432 836 460 849 449 836 b 354 867 413 836 392 846 b 228 908 322 883 278 908 b 83 803 179 908 128 883 b 76 774 79 793 76 783 b 139 713 76 740 106 713 b 192 744 160 713 181 725 b 231 786 207 772 214 786 b 296 758 247 786 264 776 b 431 714 329 740 375 714 b 575 797 479 714 528 735 b 586 832 582 807 586 819 z m 611 63 l 611 310 b 364 599 611 490 519 599 b 196 524 297 599 239 571 l 196 526 b 124 599 196 567 164 599 b 51 526 83 599 51 567 l 51 63 b 124 -10 51 24 83 -10 b 196 63 164 -10 196 24 l 196 328 b 364 454 232 413 313 454 b 467 310 394 454 467 454 l 467 63 b 539 -10 467 24 499 -10 b 611 63 579 -10 611 24 z "},"ó":{"ha":639,"x_min":0,"x_max":0,"o":"m 560 853 b 499 915 560 886 532 915 b 463 904 486 915 474 911 l 321 806 b 294 756 304 793 294 775 b 356 694 294 721 322 694 b 392 706 368 694 381 697 l 533 803 b 560 853 550 815 560 835 z m 613 371 b 394 601 613 500 528 601 b 24 213 201 601 22 401 b 242 -15 24 85 108 -15 b 613 371 435 -15 613 183 z m 468 372 b 242 129 468 264 354 129 b 168 215 188 129 168 167 b 394 457 168 322 285 457 b 468 372 446 457 468 421 z "},"ò":{"ha":639,"x_min":0,"x_max":0,"o":"m 449 756 b 422 806 449 775 440 793 l 281 904 b 244 915 269 911 257 915 b 185 853 211 915 185 886 b 211 803 185 835 194 815 l 353 706 b 388 694 364 697 375 694 b 449 756 421 694 449 721 z m 613 371 b 394 601 613 500 528 601 b 24 213 201 601 22 401 b 242 -15 24 85 108 -15 b 613 371 435 -15 613 183 z m 468 372 b 242 129 468 264 354 129 b 168 215 188 129 168 167 b 394 457 168 322 285 457 b 468 372 446 457 468 421 z "},"ô":{"ha":639,"x_min":0,"x_max":0,"o":"m 624 760 b 596 811 624 779 614 799 l 433 914 b 400 924 424 919 413 924 b 368 914 389 924 378 919 l 207 811 b 179 760 189 799 179 779 b 240 699 179 725 206 699 b 274 708 251 699 263 701 l 400 789 l 529 708 b 563 699 540 701 551 699 b 624 760 596 699 624 725 z m 613 371 b 394 601 613 500 528 601 b 24 213 201 601 22 401 b 242 -15 24 85 108 -15 b 613 371 435 -15 613 183 z m 468 372 b 242 129 468 264 354 129 b 168 215 188 129 168 167 b 394 457 168 322 285 457 b 468 372 446 457 468 421 z "},"ö":{"ha":639,"x_min":0,"x_max":0,"o":"m 588 833 b 514 906 588 874 554 906 b 442 833 474 906 442 874 b 514 760 442 793 474 760 b 588 833 554 760 588 793 z m 361 833 b 288 906 361 874 328 906 b 215 833 247 906 215 874 b 288 760 215 793 247 760 b 361 833 328 760 361 793 z m 613 371 b 394 601 613 500 528 601 b 24 213 201 601 22 401 b 242 -15 24 85 108 -15 b 613 371 435 -15 613 183 z m 468 372 b 242 129 468 264 354 129 b 168 215 188 129 168 167 b 394 457 168 322 285 457 b 468 372 446 457 468 421 z "},"õ":{"ha":639,"x_min":0,"x_max":0,"o":"m 618 832 b 556 894 618 867 590 894 b 508 869 538 894 519 886 b 464 836 492 849 481 836 b 386 867 444 836 424 846 b 260 908 354 883 310 908 b 115 803 211 908 160 883 b 108 774 111 793 108 783 b 171 713 108 740 138 713 b 224 744 192 713 213 725 b 263 786 239 772 246 786 b 329 758 279 786 296 776 b 463 714 361 740 407 714 b 607 797 511 714 560 735 b 618 832 614 807 618 819 z m 613 371 b 394 601 613 500 528 601 b 24 213 201 601 22 401 b 242 -15 24 85 108 -15 b 613 371 435 -15 613 183 z m 468 372 b 242 129 468 264 354 129 b 168 215 188 129 168 167 b 394 457 168 322 285 457 b 468 372 446 457 468 421 z "},"ú":{"ha":664,"x_min":0,"x_max":0,"o":"m 546 853 b 486 915 546 886 519 915 b 450 904 474 915 461 911 l 308 806 b 282 756 290 793 282 775 b 343 694 282 721 308 694 b 378 706 354 694 367 697 l 519 803 b 546 853 536 815 546 835 z m 613 60 l 613 522 b 539 594 613 563 579 594 b 467 522 500 594 467 563 l 467 258 b 299 132 431 174 350 132 b 196 275 268 132 196 132 l 196 522 b 124 594 196 563 164 594 b 51 522 83 594 51 563 l 51 275 b 299 -14 51 94 144 -14 b 467 63 365 -14 424 15 l 467 60 b 539 -12 467 19 500 -12 b 613 60 579 -12 613 19 z "},"ù":{"ha":664,"x_min":0,"x_max":0,"o":"m 394 756 b 368 806 394 775 386 793 l 226 904 b 190 915 215 911 203 915 b 131 853 157 915 131 886 b 157 803 131 835 140 815 l 299 706 b 333 694 310 697 322 694 b 394 756 368 694 394 721 z m 613 60 l 613 522 b 539 594 613 563 579 594 b 467 522 500 594 467 563 l 467 258 b 299 132 431 174 350 132 b 196 275 268 132 196 132 l 196 522 b 124 594 196 563 164 594 b 51 522 83 594 51 563 l 51 275 b 299 -14 51 94 144 -14 b 467 63 365 -14 424 15 l 467 60 b 539 -12 467 19 500 -12 b 613 60 579 -12 613 19 z "},"û":{"ha":664,"x_min":0,"x_max":0,"o":"m 554 760 b 526 811 554 779 544 799 l 364 914 b 331 924 354 919 342 924 b 297 914 319 924 308 919 l 138 811 b 110 760 119 799 110 779 b 171 699 110 725 136 699 b 204 708 182 699 193 701 l 331 789 l 460 708 b 493 699 469 701 482 699 b 554 760 526 699 554 725 z m 613 60 l 613 522 b 539 594 613 563 579 594 b 467 522 500 594 467 563 l 467 258 b 299 132 431 174 350 132 b 196 275 268 132 196 132 l 196 522 b 124 594 196 563 164 594 b 51 522 83 594 51 563 l 51 275 b 299 -14 51 94 144 -14 b 467 63 365 -14 424 15 l 467 60 b 539 -12 467 19 500 -12 b 613 60 579 -12 613 19 z "},"ü":{"ha":664,"x_min":0,"x_max":0,"o":"m 507 833 b 433 906 507 874 474 906 b 361 833 393 906 361 874 b 433 760 361 793 393 760 b 507 833 474 760 507 793 z m 281 833 b 207 906 281 874 247 906 b 135 833 167 906 135 874 b 207 760 135 793 167 760 b 281 833 247 760 281 793 z m 613 60 l 613 522 b 539 594 613 563 579 594 b 467 522 500 594 467 563 l 467 258 b 299 132 431 174 350 132 b 196 275 268 132 196 132 l 196 522 b 124 594 196 563 164 594 b 51 522 83 594 51 563 l 51 275 b 299 -14 51 94 144 -14 b 467 63 365 -14 424 15 l 467 60 b 539 -12 467 19 500 -12 b 613 60 579 -12 613 19 z "},"†":{"ha":376,"x_min":0,"x_max":0,"o":"m 354 731 b 282 803 354 769 321 803 l 249 803 l 249 835 b 176 907 249 875 215 907 b 104 835 136 907 104 875 l 104 803 l 72 803 b 0 731 32 803 0 769 b 72 657 0 690 32 657 l 104 657 l 104 63 b 176 -10 104 22 136 -10 b 249 63 215 -10 249 22 l 249 657 l 282 657 b 354 731 321 657 354 690 z "},"°":{"ha":457,"x_min":0,"x_max":0,"o":"m 417 754 b 249 908 417 847 338 908 b 40 718 144 908 40 826 b 208 565 40 626 119 565 b 417 754 313 565 417 646 z m 294 754 b 208 688 294 715 243 688 b 163 719 189 688 163 696 b 249 786 163 758 214 786 b 294 754 268 786 294 778 z "},"¢":{"ha":699,"x_min":0,"x_max":0,"o":"m 668 328 b 594 401 668 369 633 401 b 561 392 583 401 572 399 b 296 313 453 333 363 313 b 168 393 246 313 168 328 b 603 638 168 546 499 624 b 665 710 639 642 665 672 b 594 781 665 751 633 781 b 585 781 590 781 588 781 b 431 750 540 775 486 765 l 431 828 b 358 901 431 868 399 901 b 286 828 318 901 286 868 l 286 700 b 24 392 144 639 24 540 b 286 168 24 244 154 171 l 286 61 b 358 -11 286 22 318 -11 b 431 61 399 -11 431 22 l 431 186 b 629 264 494 201 561 228 b 668 328 654 278 668 303 z "},"£":{"ha":722,"x_min":0,"x_max":0,"o":"m 690 78 b 613 156 690 121 656 156 l 332 156 b 361 321 350 207 361 264 b 354 397 361 347 358 372 l 481 397 b 558 475 524 397 558 432 b 481 553 558 518 524 553 l 304 553 b 286 642 290 599 286 617 b 421 758 286 721 350 758 b 569 708 464 758 514 738 b 606 699 582 701 594 699 b 685 778 650 699 685 735 b 642 846 685 806 669 832 b 419 906 567 886 490 906 b 131 654 271 906 131 813 b 143 553 131 622 135 588 l 94 553 b 17 475 51 553 17 518 b 94 397 17 432 51 397 l 193 397 b 206 321 201 374 206 347 b 140 128 206 250 178 172 b 122 78 129 114 122 96 b 201 0 122 35 157 0 l 613 0 b 690 78 656 0 690 35 z "},"§":{"ha":518,"x_min":0,"x_max":0,"o":"m 488 735 b 250 906 488 808 372 906 b 31 700 138 906 31 817 b 83 564 31 651 50 604 b 22 396 43 517 22 458 l 22 394 b 258 39 22 264 114 132 b 321 -47 306 8 321 -24 b 256 -107 321 -82 289 -107 b 97 -11 192 -107 160 -11 b 21 -82 61 -11 21 -43 b 258 -253 21 -156 138 -253 b 478 -46 372 -253 478 -164 b 425 89 478 1 458 49 b 486 256 465 136 486 194 l 486 257 l 486 260 b 251 614 486 390 394 521 b 188 700 203 646 188 676 b 253 760 188 735 219 760 b 411 664 317 760 349 664 b 488 735 449 664 488 696 z m 332 257 b 308 186 332 233 325 208 b 176 396 251 231 176 315 b 200 467 176 421 183 444 b 332 257 257 422 332 338 z "},"•":{"ha":332,"x_min":0,"x_max":0,"o":"m 306 390 b 167 531 306 468 243 531 b 26 390 89 531 26 468 b 167 251 26 314 89 251 b 306 390 243 251 306 314 z "},"¶":{"ha":728,"x_min":0,"x_max":0,"o":"m 663 63 l 663 743 b 626 806 663 769 647 794 b 296 904 532 858 411 904 b 21 671 171 904 21 835 b 279 350 21 513 164 404 l 279 63 b 351 -8 279 22 313 -8 b 422 63 389 -8 422 22 l 422 299 b 521 278 454 290 488 283 l 521 63 b 592 -8 521 22 553 -8 b 663 63 631 -8 663 22 z m 521 424 b 422 447 488 429 454 438 l 422 739 b 521 700 456 729 489 715 z m 279 514 b 164 671 215 556 164 613 b 279 760 164 724 211 757 z "},"ß":{"ha":972,"x_min":0,"x_max":0,"o":"m 939 314 b 664 592 939 471 817 578 b 694 699 685 625 694 663 b 468 907 694 824 586 907 b 132 582 279 907 153 758 l 82 582 b 10 510 42 582 10 549 b 82 438 10 469 42 438 l 129 438 l 129 63 b 201 -10 129 22 161 -10 b 274 63 242 -10 274 22 l 274 532 b 468 761 274 643 343 761 b 550 699 504 761 550 742 b 486 614 550 671 526 640 b 429 524 447 589 429 556 b 524 442 429 481 464 442 b 629 457 558 442 592 457 b 794 314 717 457 794 407 b 542 131 794 192 646 131 b 460 175 515 131 460 139 b 522 215 460 206 499 215 b 597 200 542 215 568 211 b 624 194 606 196 615 194 b 696 267 664 194 696 228 b 649 335 696 297 678 324 b 522 360 604 351 561 360 b 314 175 414 360 314 290 b 543 -14 314 51 428 -14 b 939 314 728 -14 939 107 z "},"®":{"ha":1171,"x_min":0,"x_max":0,"o":"m 1133 510 b 661 915 1133 767 900 915 b 38 382 374 915 38 694 b 510 -22 38 126 271 -22 b 1133 510 797 -22 1133 199 z m 999 511 b 510 111 999 271 724 111 b 172 382 347 111 172 201 b 661 781 172 622 446 781 b 999 511 824 781 999 692 z m 854 564 b 836 611 854 581 847 599 b 689 678 797 654 746 678 b 574 631 649 678 607 663 b 507 686 574 665 536 686 b 435 614 467 686 435 654 l 435 274 b 507 201 435 233 467 201 b 579 274 547 201 579 233 l 579 418 b 690 540 579 475 629 540 b 726 515 704 540 717 528 b 781 492 742 500 761 492 b 854 564 821 492 854 524 z "},"©":{"ha":1171,"x_min":0,"x_max":0,"o":"m 1133 510 b 661 915 1133 767 900 915 b 38 382 374 915 38 694 b 510 -22 38 126 271 -22 b 1133 510 797 -22 1133 199 z m 999 511 b 510 111 999 271 725 111 b 172 382 347 111 172 201 b 661 781 172 622 446 781 b 999 511 824 781 999 692 z m 794 335 b 722 407 794 374 763 407 b 688 399 711 407 699 404 b 513 344 617 360 557 344 b 433 393 482 344 433 354 b 731 567 433 504 654 557 b 793 638 767 571 793 601 b 721 711 793 679 761 711 b 713 710 718 711 715 710 b 289 394 547 690 289 600 b 513 200 289 268 397 200 b 757 271 586 200 669 224 b 794 335 781 283 794 308 z "},"™":{"ha":1004,"x_min":0,"x_max":0,"o":"m 969 615 l 969 714 b 800 907 969 817 907 907 b 692 869 761 907 724 893 b 589 907 663 894 626 907 b 504 885 558 907 529 899 b 472 893 494 890 483 893 b 406 826 436 893 406 863 l 406 615 b 472 549 406 579 436 549 b 539 615 510 549 539 579 l 539 736 b 589 772 550 761 571 772 b 624 714 619 772 624 738 l 624 615 b 690 549 624 579 654 549 b 758 615 728 549 758 579 l 758 714 b 756 744 758 725 757 735 b 800 772 767 764 785 772 b 836 714 831 772 836 738 l 836 615 b 903 549 836 579 867 549 b 969 615 940 549 969 579 z m 371 825 b 304 892 371 861 340 892 l 89 892 b 22 825 51 892 22 861 b 89 758 22 788 51 758 l 126 758 l 126 615 b 193 549 126 579 157 549 b 260 615 231 549 260 579 l 260 758 l 304 758 b 371 825 340 758 371 788 z "},"´":{"ha":614,"x_min":0,"x_max":0,"o":"m 438 853 b 378 915 438 886 411 915 b 342 904 365 915 353 911 l 200 806 b 174 756 182 793 174 775 b 235 694 174 721 201 694 b 269 706 247 694 258 697 l 411 803 b 438 853 429 815 438 835 z "},"¨":{"ha":614,"x_min":0,"x_max":0,"o":"m 493 833 b 419 906 493 874 460 906 b 347 833 379 906 347 874 b 419 760 347 793 379 760 b 493 833 460 760 493 793 z m 267 833 b 193 906 267 874 233 906 b 121 833 153 906 121 874 b 193 760 121 793 153 760 b 267 833 233 760 267 793 z "},"Æ":{"ha":1096,"x_min":0,"x_max":0,"o":"m 1064 78 b 986 156 1064 121 1029 156 l 708 156 l 708 306 l 957 306 b 1035 383 1000 306 1035 340 b 957 461 1035 426 1000 461 l 708 461 l 708 736 l 981 736 b 1058 814 1024 736 1058 771 b 981 892 1058 857 1024 892 l 631 892 b 339 686 493 892 399 804 l 40 104 b 32 69 35 93 32 81 b 110 -10 32 25 67 -10 b 179 33 138 -10 165 7 l 318 306 l 553 306 l 553 78 b 631 0 553 35 588 0 l 986 0 b 1064 78 1029 0 1064 35 z m 553 460 l 399 460 l 479 618 b 553 711 479 618 525 692 z "},"Ø":{"ha":872,"x_min":0,"x_max":0,"o":"m 890 921 b 819 990 890 961 858 990 l 818 990 b 767 965 799 990 781 981 l 681 860 b 515 906 635 889 579 906 b 32 354 239 906 32 614 b 89 138 32 276 53 200 l -1 26 b -18 -18 -12 13 -17 -1 l -18 -19 b 54 -87 -18 -58 15 -87 l 56 -87 b 106 -61 74 -87 93 -78 l 185 35 b 356 -15 232 4 289 -15 b 839 535 632 -15 839 278 l 839 538 b 778 760 839 618 818 697 l 874 876 b 890 921 885 890 890 904 z m 581 738 l 200 272 b 189 353 192 297 189 326 b 515 750 189 531 329 750 b 581 738 540 750 561 746 z m 683 536 b 356 142 683 365 542 142 b 285 157 329 142 306 147 l 669 628 b 683 536 679 599 683 567 z "},"¥":{"ha":753,"x_min":0,"x_max":0,"o":"m 729 824 b 653 903 729 868 696 903 b 589 871 628 903 604 893 l 379 586 l 163 872 b 100 903 147 893 124 903 b 22 825 57 903 22 868 b 39 778 22 808 28 792 l 292 443 l 236 443 b 158 365 193 443 158 408 b 236 288 158 322 193 288 l 303 288 l 303 236 l 236 236 b 158 158 193 236 158 201 b 236 81 158 115 193 81 l 303 81 l 303 68 b 381 -10 303 25 338 -10 b 458 68 424 -10 458 25 l 458 81 l 515 81 b 594 158 558 81 594 115 b 515 236 594 201 558 236 l 458 236 l 458 288 l 515 288 b 594 365 558 288 594 322 b 515 443 594 408 558 443 l 468 443 l 715 779 b 729 824 725 793 729 808 z "},"µ":{"ha":664,"x_min":0,"x_max":0,"o":"m 613 275 l 613 522 b 539 594 613 563 579 594 b 467 522 500 594 467 563 l 467 275 b 364 132 467 132 396 132 b 196 258 313 132 233 174 l 196 522 b 124 594 196 563 164 594 b 51 522 83 594 51 563 l 51 -176 b 124 -249 51 -217 83 -249 b 196 -176 164 -249 196 -217 l 196 60 l 196 63 b 364 -14 239 15 299 -14 b 613 275 519 -14 613 94 z "},"ª":{"ha":743,"x_min":0,"x_max":0,"o":"m 674 540 l 674 850 b 601 922 674 890 642 922 b 31 631 446 922 31 840 b 275 463 31 504 172 463 b 539 515 353 463 443 481 b 604 471 550 489 575 471 b 674 540 642 471 674 501 z m 535 663 b 276 601 428 617 340 601 b 174 633 229 601 174 608 b 532 776 174 706 458 778 l 535 776 z "},"º":{"ha":703,"x_min":0,"x_max":0,"o":"m 668 754 b 435 939 668 881 549 939 b 32 636 276 939 32 819 b 267 451 32 510 153 451 b 668 754 424 451 668 571 z m 524 754 b 267 596 524 661 339 596 b 178 636 243 596 178 601 b 435 794 178 729 363 794 b 524 754 457 794 524 788 z "},"æ":{"ha":1232,"x_min":0,"x_max":0,"o":"m 1175 450 b 983 599 1175 554 1074 599 b 636 479 869 599 735 557 b 347 600 583 542 497 600 b 89 524 267 600 164 581 b 61 467 71 510 61 488 b 75 422 61 451 65 436 b 133 393 89 404 111 393 b 176 408 149 393 164 399 b 347 461 214 436 278 461 b 538 367 426 461 489 435 b 407 378 492 375 449 378 b 24 147 169 378 22 254 b 226 -15 24 67 79 -15 b 544 92 314 -15 450 22 b 776 -15 593 22 679 -15 b 1101 76 872 -15 982 13 b 1140 140 1126 89 1140 114 b 1068 213 1140 182 1107 213 b 1035 204 1057 213 1046 210 b 782 121 928 149 844 121 b 654 190 732 121 674 138 b 1175 450 806 193 1175 232 z m 1019 442 b 679 314 1019 383 822 321 b 979 460 736 404 875 460 l 982 460 b 1019 442 1007 460 1019 453 z m 504 247 b 504 231 504 242 504 236 l 504 229 l 504 226 b 235 126 407 160 322 126 b 183 157 197 126 183 139 b 439 253 183 221 333 253 b 504 247 464 253 488 251 z "},"ø":{"ha":639,"x_min":0,"x_max":0,"o":"m 656 624 b 638 661 656 638 649 651 b 604 674 628 671 615 674 b 565 657 590 674 575 668 l 497 578 b 394 601 467 593 433 601 b 24 213 201 601 22 401 b 61 78 24 163 38 117 l -15 -10 b -28 -44 -25 -19 -28 -32 b -11 -82 -28 -58 -22 -72 b 22 -94 -1 -90 11 -94 b 61 -78 38 -94 51 -89 l 136 10 b 242 -15 167 -7 203 -15 b 613 371 435 -15 613 183 b 574 510 613 424 599 472 l 643 590 b 656 624 651 599 656 611 z m 468 372 b 242 129 468 264 354 128 l 240 129 l 467 389 b 468 372 468 383 468 378 z m 390 457 l 169 201 b 168 215 168 207 168 211 b 390 457 168 321 282 454 z "},"¿":{"ha":629,"x_min":0,"x_max":0,"o":"m 478 819 b 393 904 478 867 440 904 b 308 819 347 904 308 867 b 393 735 308 774 347 735 b 478 819 440 735 478 774 z m 607 131 b 529 210 607 176 569 210 b 489 199 515 210 501 207 b 303 138 449 176 354 138 b 172 235 225 138 172 174 b 294 361 172 276 211 335 b 472 621 408 399 472 478 l 472 624 b 394 703 472 667 438 703 b 317 624 351 703 317 667 l 317 621 b 243 508 317 543 297 528 b 17 244 131 469 17 375 b 301 -14 17 92 153 -14 b 568 65 382 -14 504 26 b 607 131 592 79 607 104 z "},"¡":{"ha":253,"x_min":0,"x_max":0,"o":"m 222 819 b 138 904 222 867 183 904 b 53 819 90 904 53 867 b 138 735 53 774 90 735 b 222 819 183 735 222 774 z m 215 68 l 215 622 b 138 700 215 665 181 700 b 60 622 94 700 60 665 l 60 68 b 138 -10 60 25 94 -10 b 215 68 181 -10 215 25 z "},"ƒ":{"ha":676,"x_min":0,"x_max":0,"o":"m 658 825 b 593 901 658 863 631 896 b 536 906 574 904 554 906 b 358 844 468 906 406 885 b 257 583 313 806 257 729 l 188 583 b 110 506 144 583 110 549 b 188 428 110 463 144 428 l 257 428 l 257 310 b 133 139 256 224 233 139 b 89 143 118 139 103 143 b 10 65 44 143 10 108 b 132 -17 10 -6 78 -17 b 413 308 322 -17 413 132 l 413 428 l 550 428 b 628 506 593 428 628 463 b 550 583 628 549 593 583 l 413 583 b 460 726 413 632 422 694 b 536 750 482 744 510 750 b 581 747 551 750 565 747 b 658 825 624 747 658 782 z "},"Δ":{"ha":382,"x_min":0,"x_max":0,"o":"m 351 374 b 328 413 351 390 342 406 l 106 532 b 85 538 99 536 92 538 b 40 493 63 538 40 519 l 40 254 b 85 210 40 228 63 210 b 106 215 92 210 99 213 l 328 335 b 351 374 342 342 351 357 z "},"«":{"ha":643,"x_min":0,"x_max":0,"o":"m 619 136 b 601 185 619 153 614 171 l 471 332 l 600 479 b 619 526 613 493 619 510 b 546 599 619 567 586 599 b 493 575 526 599 507 590 l 319 381 b 301 332 307 367 301 350 b 319 285 301 315 307 299 l 493 88 b 547 64 507 72 528 64 b 619 136 588 64 619 96 z m 331 136 b 313 185 331 153 325 171 l 182 332 l 313 479 b 331 526 325 493 331 510 b 258 599 331 567 299 599 b 204 575 239 599 218 590 l 31 381 b 13 332 19 367 13 350 b 31 285 13 315 19 299 l 204 88 b 258 64 219 72 239 64 b 331 136 299 64 331 96 z "},"»":{"ha":643,"x_min":0,"x_max":0,"o":"m 631 332 b 613 381 631 350 625 367 l 439 575 b 385 599 425 590 406 599 b 313 526 346 599 313 567 b 331 479 313 510 319 493 l 461 332 l 331 185 b 313 136 318 171 313 153 b 385 64 313 96 344 64 b 439 88 404 64 425 72 l 613 285 b 631 332 625 299 631 315 z m 342 332 b 324 381 342 350 336 367 l 151 575 b 97 599 136 590 117 599 b 25 526 57 599 25 567 b 43 479 25 510 31 493 l 174 332 l 43 185 b 24 136 31 171 24 153 b 96 64 24 96 57 64 b 150 88 117 64 136 72 l 324 285 b 342 332 336 299 342 315 z "},"…":{"ha":656,"x_min":0,"x_max":0,"o":"m 635 72 b 550 157 635 118 596 157 b 465 72 503 157 465 118 b 550 -12 465 25 503 -12 b 635 72 596 -12 635 25 z m 419 72 b 335 157 419 118 381 157 b 250 72 288 157 250 118 b 335 -12 250 25 288 -12 b 419 72 381 -12 419 25 z m 204 72 b 119 157 204 118 167 157 b 36 72 74 157 36 118 b 119 -12 36 25 74 -12 b 204 72 167 -12 204 25 z "},"À":{"ha":876,"x_min":0,"x_max":0,"o":"m 543 1017 b 517 1068 543 1036 533 1056 l 374 1165 b 338 1176 364 1174 350 1176 b 278 1115 304 1176 278 1149 b 304 1065 278 1096 288 1076 l 446 967 b 481 956 457 960 469 956 b 543 1017 515 956 543 983 z m 847 68 b 842 99 847 78 846 89 l 514 857 b 440 904 500 888 471 904 b 363 853 408 904 378 886 l 38 99 b 31 68 33 89 31 78 b 108 -11 31 24 65 -11 b 181 36 139 -11 168 7 l 256 208 l 624 208 l 699 36 b 769 -11 711 7 739 -11 b 847 68 813 -11 847 24 z m 561 354 l 318 354 l 439 636 z "},"Ã":{"ha":876,"x_min":0,"x_max":0,"o":"m 693 1085 b 631 1147 693 1119 665 1147 b 583 1122 613 1147 594 1139 b 539 1089 567 1101 556 1089 b 461 1119 519 1089 499 1099 b 335 1161 429 1136 385 1161 b 190 1056 286 1161 235 1136 b 183 1026 185 1046 183 1036 b 246 965 183 993 213 965 b 299 997 267 965 288 978 b 338 1038 313 1025 321 1038 b 403 1011 354 1038 371 1029 b 538 967 436 993 482 967 b 682 1050 586 967 635 986 b 693 1085 689 1060 693 1072 z m 847 68 b 842 99 847 78 846 89 l 514 857 b 440 904 500 888 471 904 b 363 853 408 904 378 886 l 38 99 b 31 68 33 89 31 78 b 108 -11 31 24 65 -11 b 181 36 139 -11 168 7 l 256 208 l 624 208 l 699 36 b 769 -11 711 7 739 -11 b 847 68 813 -11 847 24 z m 561 354 l 318 354 l 439 636 z "},"Õ":{"ha":872,"x_min":0,"x_max":0,"o":"m 775 1085 b 711 1147 775 1119 746 1147 b 664 1122 693 1147 675 1139 b 619 1089 647 1101 636 1089 b 542 1119 601 1089 579 1099 b 415 1161 510 1136 465 1161 b 271 1056 367 1161 315 1136 b 264 1026 267 1046 264 1036 b 326 965 264 993 293 965 b 379 997 347 965 368 978 b 418 1038 394 1025 401 1038 b 485 1011 436 1038 451 1029 b 619 967 518 993 563 967 b 763 1050 667 967 715 986 b 775 1085 769 1060 775 1072 z m 839 535 b 515 906 840 728 724 906 b 32 354 239 906 32 614 b 356 -15 32 163 149 -15 b 839 535 632 -15 838 278 z m 683 536 b 356 142 683 365 542 142 b 189 353 239 142 189 250 b 515 750 189 531 329 750 b 683 536 633 750 683 640 z "},"Œ":{"ha":1171,"x_min":0,"x_max":0,"o":"m 1139 78 b 1061 156 1139 121 1104 156 l 783 156 l 783 297 b 828 429 803 339 818 385 l 1032 429 b 1110 507 1075 429 1110 464 b 1032 585 1110 550 1075 585 l 836 585 b 792 736 831 639 815 692 l 1056 736 b 1133 815 1099 736 1133 772 b 1056 893 1133 858 1099 893 l 706 893 b 656 875 686 893 669 886 b 515 906 615 894 568 906 b 32 354 239 906 32 614 b 356 -15 32 163 149 -15 b 628 89 458 -15 551 25 l 628 78 b 706 0 628 35 663 0 l 1061 0 b 1139 78 1104 0 1139 35 z m 683 536 b 356 142 683 365 542 142 b 189 353 239 142 189 250 b 515 750 189 531 329 750 b 683 536 633 750 683 640 z "},"œ":{"ha":1088,"x_min":0,"x_max":0,"o":"m 1061 450 b 869 599 1061 554 960 599 b 571 513 774 599 663 568 b 394 601 533 567 472 601 b 24 213 201 601 22 401 b 242 -15 24 85 108 -15 b 453 64 318 -15 392 15 b 661 -15 503 13 578 -15 b 988 76 757 -15 868 13 b 1026 140 1013 89 1026 114 b 954 213 1026 182 992 213 b 919 204 943 213 931 210 b 668 121 814 149 731 121 b 550 172 625 121 575 133 b 561 190 554 178 557 185 b 1061 450 722 196 1061 242 z m 904 442 b 608 318 904 389 744 333 b 613 368 611 335 613 351 b 865 460 681 425 783 460 l 868 460 b 904 442 893 460 904 453 z m 468 372 b 242 129 468 264 354 129 b 168 215 188 129 168 167 b 394 457 168 322 285 457 b 468 372 446 457 468 421 z "},"–":{"ha":607,"x_min":0,"x_max":0,"o":"m 551 346 b 474 424 551 389 517 424 l 133 424 b 56 346 90 424 56 389 b 133 268 56 303 90 268 l 474 268 b 551 346 517 268 551 303 z "},"—":{"ha":785,"x_min":0,"x_max":0,"o":"m 729 346 b 651 424 729 389 694 424 l 133 424 b 56 346 90 424 56 389 b 133 268 56 303 90 268 l 651 268 b 729 346 694 268 729 303 z "},"“":{"ha":453,"x_min":0,"x_max":0,"o":"m 443 856 b 375 922 443 892 413 922 b 332 906 358 922 344 917 b 235 708 281 861 235 781 b 325 585 235 628 269 585 b 410 669 371 585 410 622 b 374 738 410 697 396 722 b 419 804 382 758 400 788 b 443 856 435 818 443 836 z m 222 856 b 156 922 222 892 192 922 b 111 906 139 922 124 917 b 14 708 61 861 14 781 b 104 585 14 628 49 585 b 189 669 151 585 189 622 b 154 738 189 697 175 722 b 199 804 163 758 179 788 b 222 856 214 818 222 836 z "},"”":{"ha":453,"x_min":0,"x_max":0,"o":"m 438 782 b 349 907 438 864 403 907 b 264 822 301 907 264 868 b 299 753 264 793 278 768 b 253 686 290 732 274 704 b 231 636 238 674 231 654 b 297 569 231 599 261 569 b 342 586 314 569 329 575 b 438 782 392 629 438 711 z m 217 782 b 128 907 217 864 182 907 b 43 822 81 907 43 868 b 78 753 43 793 57 768 b 33 686 69 732 53 704 b 10 636 18 674 10 654 b 76 569 10 599 40 569 b 121 586 93 569 108 575 b 217 782 171 629 217 711 z "},"‘":{"ha":231,"x_min":0,"x_max":0,"o":"m 222 856 b 156 922 222 892 192 922 b 111 906 139 922 124 917 b 14 708 61 861 14 781 b 104 585 14 628 49 585 b 189 669 151 585 189 622 b 154 738 189 697 175 722 b 199 804 163 758 179 788 b 222 856 214 818 222 836 z "},"’":{"ha":232,"x_min":0,"x_max":0,"o":"m 217 782 b 128 907 217 864 182 907 b 43 822 81 907 43 868 b 78 753 43 793 57 768 b 33 686 69 732 53 704 b 10 636 18 674 10 654 b 76 569 10 599 40 569 b 121 586 93 569 108 575 b 217 782 171 629 217 711 z "},"÷":{"ha":624,"x_min":0,"x_max":0,"o":"m 376 585 b 296 665 376 629 340 665 b 215 585 251 665 215 629 b 296 504 215 540 251 504 b 376 585 340 504 376 540 z m 601 379 b 529 451 601 419 569 451 l 96 451 b 22 379 56 451 22 419 b 96 307 22 339 56 307 l 529 307 b 601 379 569 307 601 339 z m 376 174 b 296 254 376 218 340 254 b 215 174 251 254 215 218 b 296 93 215 129 251 93 b 376 174 340 93 376 129 z "},"◊":{"ha":382,"x_min":0,"x_max":0,"o":"m 354 372 b 344 394 354 381 351 389 l 214 525 b 190 535 208 532 200 535 b 167 525 182 535 174 532 l 38 394 b 28 372 31 389 28 381 b 38 349 28 363 31 354 l 167 218 b 190 208 174 211 182 208 b 214 218 200 208 208 211 l 344 349 b 354 372 351 354 354 363 z "},"ÿ":{"ha":644,"x_min":0,"x_max":0,"o":"m 508 833 b 436 906 508 874 476 906 b 363 833 394 906 363 874 b 436 760 363 793 394 760 b 508 833 476 760 508 793 z m 282 833 b 210 906 282 874 250 906 b 136 833 168 906 136 874 b 210 760 136 793 168 760 b 282 833 250 760 282 793 z m 621 515 b 547 589 621 557 588 589 b 482 544 519 589 493 572 l 329 193 l 161 551 b 96 593 149 578 124 593 b 24 521 56 593 24 561 b 31 490 24 510 26 500 l 251 15 l 249 7 b 121 -108 214 -69 172 -108 b 89 -103 111 -108 100 -107 b 68 -100 82 -101 75 -100 b -4 -174 29 -100 -4 -132 b 49 -242 -4 -204 17 -233 b 124 -254 74 -250 99 -254 b 381 -50 231 -253 324 -181 l 614 488 b 621 515 618 496 621 506 z "},"Ÿ":{"ha":753,"x_min":0,"x_max":0,"o":"m 563 1032 b 489 1104 563 1072 529 1104 b 417 1032 449 1104 417 1072 b 489 958 417 992 449 958 b 563 1032 529 958 563 992 z m 336 1032 b 263 1104 336 1072 303 1104 b 190 1032 222 1104 190 1072 b 263 958 190 992 222 958 b 336 1032 303 958 336 992 z m 729 824 b 651 903 729 868 694 903 b 588 871 628 903 603 893 l 379 586 l 163 872 b 99 903 146 893 122 903 b 22 825 57 903 22 868 b 38 778 22 808 26 792 l 301 428 l 301 68 b 381 -10 301 25 338 -10 b 458 68 424 -10 458 25 l 458 431 l 714 779 b 729 824 724 793 729 808 z "},"⁄":{"ha":818,"x_min":0,"x_max":0,"o":"m 797 824 b 719 901 797 868 764 901 b 660 874 697 901 675 892 l 38 119 b 19 68 25 104 19 86 b 100 -8 19 26 56 -8 b 158 19 121 -8 143 1 l 779 774 b 797 824 792 789 797 807 z "},"‹":{"ha":356,"x_min":0,"x_max":0,"o":"m 331 136 b 313 185 331 153 325 171 l 182 332 l 313 479 b 331 526 325 493 331 510 b 258 599 331 567 299 599 b 204 575 239 599 218 590 l 31 381 b 13 332 19 367 13 350 b 31 285 13 315 19 299 l 204 88 b 258 64 219 72 239 64 b 331 136 299 64 331 96 z "},"›":{"ha":356,"x_min":0,"x_max":0,"o":"m 342 332 b 324 381 342 350 336 367 l 151 575 b 97 599 136 590 117 599 b 25 526 57 599 25 567 b 43 479 25 510 31 493 l 174 332 l 43 185 b 24 136 31 171 24 153 b 96 64 24 96 57 64 b 150 88 117 64 136 72 l 324 285 b 342 332 336 299 342 315 z "},"ﬁ":{"ha":683,"x_min":0,"x_max":0,"o":"m 639 747 b 625 792 639 764 633 779 b 403 906 575 864 489 906 b 132 585 224 906 135 751 l 88 585 b 15 513 49 585 15 553 b 88 440 15 474 49 440 l 132 440 l 132 63 b 204 -11 132 22 164 -11 b 276 63 243 -11 276 22 l 276 440 l 488 440 l 488 63 b 560 -11 488 22 519 -11 b 632 63 600 -11 632 22 l 632 513 b 556 585 632 554 597 585 l 276 585 b 403 761 278 667 307 761 b 488 729 436 761 461 751 b 560 664 497 692 519 664 b 639 747 603 664 639 707 z "},"ﬂ":{"ha":700,"x_min":0,"x_max":0,"o":"m 649 63 l 649 815 b 586 888 649 853 622 883 b 411 907 540 893 467 907 b 229 838 335 907 278 881 b 131 585 167 782 133 697 l 88 585 b 15 513 49 585 15 553 b 88 440 15 474 49 440 l 131 440 l 131 64 b 203 -8 131 25 164 -8 b 276 64 243 -8 276 25 l 276 440 l 383 440 b 456 513 424 440 456 474 b 383 585 456 553 424 585 l 276 585 b 325 729 278 635 288 696 b 419 761 353 753 389 761 b 504 751 447 761 481 754 l 504 63 b 576 -10 504 22 538 -10 b 649 63 617 -10 649 22 z "},"‡":{"ha":376,"x_min":0,"x_max":0,"o":"m 354 513 b 282 585 354 553 321 585 l 249 585 l 249 657 l 282 657 b 354 731 321 657 354 690 b 282 803 354 769 321 803 l 249 803 l 249 835 b 176 907 249 875 215 907 b 104 835 136 907 104 875 l 104 803 l 72 803 b 0 731 32 803 0 769 b 72 657 0 690 32 657 l 104 657 l 104 585 l 72 585 b 0 513 32 585 0 553 b 72 440 0 472 32 440 l 104 440 l 104 63 b 176 -10 104 22 136 -10 b 249 63 215 -10 249 22 l 249 440 l 282 440 b 354 513 321 440 354 472 z "},"·":{"ha":225,"x_min":0,"x_max":0,"o":"m 204 424 b 119 508 204 469 167 508 b 36 424 74 508 36 469 b 119 339 36 376 74 339 b 204 424 167 339 204 376 z "},"‚":{"ha":224,"x_min":0,"x_max":0,"o":"m 208 33 b 119 157 208 114 174 157 b 35 72 72 157 35 118 b 69 3 35 43 49 18 b 24 -64 61 -18 44 -46 b 1 -114 8 -76 1 -96 b 68 -181 1 -150 32 -181 b 113 -164 85 -181 100 -175 b 208 33 163 -119 208 -39 z "},"„":{"ha":453,"x_min":0,"x_max":0,"o":"m 438 33 b 349 157 438 114 403 157 b 264 72 301 157 264 118 b 299 3 264 43 278 18 b 253 -64 290 -18 274 -46 b 231 -114 238 -76 231 -96 b 297 -181 231 -150 261 -181 b 342 -164 314 -181 329 -175 b 438 33 392 -119 438 -39 z m 217 33 b 128 157 217 114 182 157 b 43 72 81 157 43 118 b 78 3 43 43 57 18 b 33 -64 69 -18 53 -46 b 10 -114 18 -76 10 -96 b 76 -181 10 -150 40 -181 b 121 -164 93 -181 108 -175 b 217 33 171 -119 217 -39 z "},"‰":{"ha":1276,"x_min":0,"x_max":0,"o":"m 1249 336 b 1096 503 1249 426 1193 503 b 946 444 1042 503 990 481 b 825 503 919 481 878 503 b 519 149 664 503 519 303 b 674 -17 519 60 578 -17 b 822 43 726 -17 778 7 b 943 -17 849 7 890 -17 b 1249 336 1103 -17 1249 183 z m 850 825 b 771 903 850 865 817 903 b 708 869 747 903 724 892 l 172 113 b 157 67 163 97 157 82 b 238 -11 157 26 190 -11 b 300 22 261 -11 285 1 l 836 781 b 850 825 846 794 850 810 z m 486 739 b 333 906 486 829 431 906 b 28 550 172 906 28 704 b 182 386 28 461 86 386 b 486 739 340 386 486 586 z m 1106 333 b 1090 271 1106 317 1100 294 b 1014 164 1072 226 1043 189 b 953 129 986 140 965 129 b 940 133 947 129 944 131 b 933 156 936 138 933 144 b 949 217 933 169 939 192 b 1024 322 967 261 996 297 b 1088 358 1054 347 1074 358 b 1106 333 1100 358 1106 349 z m 835 333 b 819 271 835 317 829 294 b 743 164 801 226 772 189 b 682 129 715 140 694 129 b 671 133 676 129 674 131 b 663 156 665 138 663 144 b 678 217 663 169 668 192 b 753 322 696 261 725 297 b 817 358 783 347 804 358 b 835 333 829 358 835 349 z m 343 735 b 328 672 343 719 338 697 b 251 567 310 628 281 592 b 190 532 224 543 204 532 b 179 536 185 532 182 533 b 171 557 174 540 171 547 b 188 618 171 572 176 593 b 261 724 204 663 233 699 b 325 761 292 750 313 761 b 343 735 338 761 343 751 z "},"Â":{"ha":876,"x_min":0,"x_max":0,"o":"m 661 1004 b 632 1056 661 1025 651 1044 l 471 1158 b 438 1168 460 1165 449 1168 b 404 1158 426 1168 414 1165 l 244 1056 b 215 1004 225 1044 215 1024 b 276 943 215 969 243 943 b 310 953 289 943 300 946 l 438 1035 l 567 953 b 599 943 576 946 588 943 b 661 1004 633 943 661 969 z m 847 68 b 842 99 847 78 846 89 l 514 857 b 440 904 500 888 471 904 b 363 853 408 904 378 886 l 38 99 b 31 68 33 89 31 78 b 108 -11 31 24 65 -11 b 181 36 139 -11 168 7 l 256 208 l 624 208 l 699 36 b 769 -11 711 7 739 -11 b 847 68 813 -11 847 24 z m 561 354 l 318 354 l 439 636 z "},"Ê":{"ha":607,"x_min":0,"x_max":0,"o":"m 539 1018 b 511 1069 539 1038 529 1058 l 349 1172 b 317 1182 339 1179 328 1182 b 283 1172 304 1182 293 1179 l 122 1069 b 94 1018 104 1057 94 1038 b 156 957 94 983 122 957 b 189 967 167 957 179 960 l 317 1047 l 444 967 b 478 957 456 960 467 957 b 539 1018 513 957 539 983 z m 575 78 b 497 156 575 121 540 156 l 219 156 l 219 429 l 468 429 b 547 507 511 429 547 464 b 468 585 547 550 511 585 l 219 585 l 219 736 l 492 736 b 569 815 535 736 569 772 b 492 893 569 858 535 893 l 142 893 b 64 815 99 893 64 858 l 64 78 b 142 0 64 35 99 0 l 497 0 b 575 78 540 0 575 35 z "},"Á":{"ha":876,"x_min":0,"x_max":0,"o":"m 604 1115 b 543 1176 604 1149 576 1176 b 507 1165 531 1176 518 1174 l 365 1068 b 339 1017 349 1056 339 1036 b 400 956 339 983 367 956 b 435 967 413 956 425 960 l 578 1065 b 604 1115 594 1076 604 1096 z m 847 68 b 842 99 847 78 846 89 l 514 857 b 440 904 500 888 471 904 b 363 853 408 904 378 886 l 38 99 b 31 68 33 89 31 78 b 108 -11 31 24 65 -11 b 181 36 139 -11 168 7 l 256 208 l 624 208 l 699 36 b 769 -11 711 7 739 -11 b 847 68 813 -11 847 24 z m 561 354 l 318 354 l 439 636 z "},"Ë":{"ha":607,"x_min":0,"x_max":0,"o":"m 517 1032 b 443 1104 517 1072 483 1104 b 371 1032 403 1104 371 1072 b 443 958 371 992 403 958 b 517 1032 483 958 517 992 z m 290 1032 b 217 1104 290 1072 257 1104 b 144 1032 176 1104 144 1072 b 217 958 144 992 176 958 b 290 1032 257 958 290 992 z m 575 78 b 497 156 575 121 540 156 l 219 156 l 219 429 l 468 429 b 547 507 511 429 547 464 b 468 585 547 550 511 585 l 219 585 l 219 736 l 492 736 b 569 815 535 736 569 772 b 492 893 569 858 535 893 l 142 893 b 64 815 99 893 64 858 l 64 78 b 142 0 64 35 99 0 l 497 0 b 575 78 540 0 575 35 z "},"È":{"ha":607,"x_min":0,"x_max":0,"o":"m 421 1017 b 394 1068 421 1036 413 1056 l 253 1165 b 217 1176 242 1174 229 1176 b 157 1115 183 1176 157 1149 b 183 1065 157 1096 167 1076 l 325 967 b 360 956 336 960 347 956 b 421 1017 393 956 421 983 z m 575 78 b 497 156 575 121 540 156 l 219 156 l 219 429 l 468 429 b 547 507 511 429 547 464 b 468 585 547 550 511 585 l 219 585 l 219 736 l 492 736 b 569 815 535 736 569 772 b 492 893 569 858 535 893 l 142 893 b 64 815 99 893 64 858 l 64 78 b 142 0 64 35 99 0 l 497 0 b 575 78 540 0 575 35 z "},"Í":{"ha":283,"x_min":0,"x_max":0,"o":"m 314 1115 b 254 1176 314 1149 288 1176 b 218 1165 242 1176 229 1174 l 76 1068 b 50 1017 60 1056 50 1036 b 111 956 50 983 78 956 b 146 967 124 956 136 960 l 288 1065 b 314 1115 306 1076 314 1096 z m 219 69 l 219 822 b 142 900 219 865 185 900 b 64 822 99 900 64 865 l 64 69 b 142 -8 64 26 99 -8 b 219 69 185 -8 219 26 z "},"Î":{"ha":283,"x_min":0,"x_max":0,"o":"m 364 1018 b 336 1069 364 1038 354 1058 l 174 1172 b 140 1182 164 1179 153 1182 b 108 1172 129 1182 118 1179 l -53 1069 b -81 1018 -71 1057 -81 1038 b -19 957 -81 983 -53 957 b 14 967 -8 957 4 960 l 142 1047 l 269 967 b 303 957 281 960 292 957 b 364 1018 338 957 364 983 z m 219 69 l 219 822 b 142 900 219 865 185 900 b 64 822 99 900 64 865 l 64 69 b 142 -8 64 26 99 -8 b 219 69 185 -8 219 26 z "},"Ï":{"ha":283,"x_min":0,"x_max":0,"o":"m 328 1032 b 256 1104 328 1072 296 1104 b 182 1032 215 1104 182 1072 b 256 958 182 992 215 958 b 328 1032 296 958 328 992 z m 101 1032 b 29 1104 101 1072 69 1104 b -44 1032 -11 1104 -44 1072 b 29 958 -44 992 -11 958 b 101 1032 69 958 101 992 z m 219 69 l 219 822 b 142 900 219 865 185 900 b 64 822 99 900 64 865 l 64 69 b 142 -8 64 26 99 -8 b 219 69 185 -8 219 26 z "},"Ì":{"ha":283,"x_min":0,"x_max":0,"o":"m 233 1017 b 207 1068 233 1036 225 1056 l 65 1165 b 29 1176 54 1174 42 1176 b -31 1115 -4 1176 -31 1149 b -4 1065 -31 1096 -22 1076 l 138 967 b 172 956 149 960 160 956 b 233 1017 206 956 233 983 z m 219 69 l 219 822 b 142 900 219 865 185 900 b 64 822 99 900 64 865 l 64 69 b 142 -8 64 26 99 -8 b 219 69 185 -8 219 26 z "},"Ó":{"ha":872,"x_min":0,"x_max":0,"o":"m 679 1115 b 618 1176 679 1149 651 1176 b 582 1165 606 1176 593 1174 l 440 1068 b 414 1017 424 1056 414 1036 b 475 956 414 983 442 956 b 510 967 488 956 500 960 l 653 1065 b 679 1115 669 1076 679 1096 z m 839 535 b 515 906 840 728 724 906 b 32 354 239 906 32 614 b 356 -15 32 163 149 -15 b 839 535 632 -15 838 278 z m 683 536 b 356 142 683 365 542 142 b 189 353 239 142 189 250 b 515 750 189 531 329 750 b 683 536 633 750 683 640 z "},"Ô":{"ha":872,"x_min":0,"x_max":0,"o":"m 728 1018 b 700 1069 728 1038 718 1058 l 538 1172 b 504 1182 528 1179 517 1182 b 472 1172 493 1182 482 1179 l 311 1069 b 283 1018 293 1057 283 1038 b 344 957 283 983 311 957 b 378 967 356 957 367 960 l 504 1047 l 633 967 b 667 957 644 960 656 957 b 728 1018 700 957 728 983 z m 839 535 b 515 906 840 728 724 906 b 32 354 239 906 32 614 b 356 -15 32 163 149 -15 b 839 535 632 -15 838 278 z m 683 536 b 356 142 683 365 542 142 b 189 353 239 142 189 250 b 515 750 189 531 329 750 b 683 536 633 750 683 640 z "},"Ò":{"ha":872,"x_min":0,"x_max":0,"o":"m 624 1017 b 597 1068 624 1036 614 1056 l 456 1165 b 419 1176 444 1174 432 1176 b 360 1115 386 1176 358 1149 b 386 1065 360 1096 368 1076 l 528 967 b 563 956 538 960 550 956 b 624 1017 596 956 624 983 z m 839 535 b 515 906 840 728 724 906 b 32 354 239 906 32 614 b 356 -15 32 163 149 -15 b 839 535 632 -15 838 278 z m 683 536 b 356 142 683 365 542 142 b 189 353 239 142 189 250 b 515 750 189 531 329 750 b 683 536 633 750 683 640 z "},"Ú":{"ha":796,"x_min":0,"x_max":0,"o":"m 597 1115 b 538 1176 597 1149 571 1176 b 501 1165 525 1176 513 1174 l 360 1068 b 333 1017 343 1056 333 1036 b 394 956 333 983 361 956 b 429 967 407 956 419 960 l 571 1065 b 597 1115 589 1076 597 1096 z m 732 367 l 732 822 b 654 901 732 865 697 901 b 576 822 611 901 576 865 l 576 367 b 397 142 576 221 521 142 b 219 367 275 142 219 221 l 219 822 b 142 901 219 865 185 901 b 64 822 99 901 64 865 l 64 367 b 397 -15 64 135 188 -15 b 732 367 608 -15 732 135 z "},"Û":{"ha":796,"x_min":0,"x_max":0,"o":"m 621 1018 b 592 1069 621 1038 611 1058 l 431 1172 b 397 1182 419 1179 408 1182 b 364 1172 385 1182 374 1179 l 204 1069 b 175 1018 185 1057 175 1038 b 236 957 175 983 203 957 b 269 967 249 957 260 960 l 397 1047 l 526 967 b 558 957 536 960 547 957 b 621 1018 593 957 621 983 z m 732 367 l 732 822 b 654 901 732 865 697 901 b 576 822 611 901 576 865 l 576 367 b 397 142 576 221 521 142 b 219 367 275 142 219 221 l 219 822 b 142 901 219 865 185 901 b 64 822 99 901 64 865 l 64 367 b 397 -15 64 135 188 -15 b 732 367 608 -15 732 135 z "},"Ù":{"ha":796,"x_min":0,"x_max":0,"o":"m 475 1017 b 449 1068 475 1036 465 1056 l 307 1165 b 271 1176 296 1174 283 1176 b 211 1115 238 1176 211 1149 b 238 1065 211 1096 219 1076 l 379 967 b 414 956 389 960 401 956 b 475 1017 447 956 475 983 z m 732 367 l 732 822 b 654 901 732 865 697 901 b 576 822 611 901 576 865 l 576 367 b 397 142 576 221 521 142 b 219 367 275 142 219 221 l 219 822 b 142 901 219 865 185 901 b 64 822 99 901 64 865 l 64 367 b 397 -15 64 135 188 -15 b 732 367 608 -15 732 135 z "},"ı":{"ha":247,"x_min":0,"x_max":0,"o":"m 196 64 l 196 525 b 124 597 196 565 164 597 b 51 525 83 597 51 565 l 51 64 b 124 -8 51 25 83 -8 b 196 64 164 -8 196 25 z "},"ˆ":{"ha":614,"x_min":0,"x_max":0,"o":"m 529 760 b 501 811 529 779 519 799 l 339 914 b 306 924 329 919 318 924 b 274 914 294 924 283 919 l 113 811 b 85 760 94 799 85 779 b 146 699 85 725 113 699 b 179 708 157 699 168 701 l 306 789 l 435 708 b 468 699 446 701 457 699 b 529 760 501 699 529 725 z "},"˜":{"ha":614,"x_min":0,"x_max":0,"o":"m 565 832 b 501 894 565 867 538 894 b 454 869 483 894 465 886 b 410 836 438 849 426 836 b 332 867 392 836 371 846 b 206 908 300 883 256 908 b 61 803 157 908 106 883 b 54 774 57 793 54 783 b 117 713 54 740 83 713 b 169 744 138 713 158 725 b 208 786 185 772 192 786 b 275 758 226 786 242 776 b 410 714 308 740 354 714 b 553 797 457 714 506 735 b 565 832 560 807 565 819 z "},"¯":{"ha":594,"x_min":0,"x_max":0,"o":"m 510 829 b 449 890 510 864 482 890 l 146 890 b 85 829 113 890 85 864 b 146 768 85 796 113 768 l 449 768 b 510 829 482 768 510 796 z "},"˘":{"ha":614,"x_min":0,"x_max":0,"o":"m 531 842 b 471 904 531 876 504 904 b 419 879 451 904 432 896 b 303 814 390 838 347 814 l 300 814 b 196 876 258 815 221 838 b 144 904 185 894 165 904 b 83 842 110 904 83 875 b 93 810 83 831 88 819 b 296 692 140 738 214 693 l 303 692 b 519 807 386 690 467 735 b 531 842 526 818 531 829 z "},"˙":{"ha":614,"x_min":0,"x_max":0,"o":"m 379 833 b 307 906 379 874 347 906 b 233 833 267 906 233 874 b 307 760 233 793 267 760 b 379 833 347 760 379 793 z "},"˚":{"ha":614,"x_min":0,"x_max":0,"o":"m 496 853 b 328 1007 496 946 417 1007 b 118 818 224 1007 118 926 b 288 664 118 725 197 664 b 496 853 390 664 496 744 z m 374 853 b 288 786 374 814 322 786 b 242 818 268 786 242 794 b 328 885 242 857 293 885 b 374 853 347 885 374 876 z "},"¸":{"ha":614,"x_min":0,"x_max":0,"o":"m 417 -96 b 274 65 417 -14 361 65 b 213 4 239 65 213 38 b 274 -58 213 -31 239 -58 b 299 -96 288 -58 299 -75 b 224 -150 299 -115 286 -139 b 172 -210 193 -154 172 -181 b 233 -271 172 -243 200 -271 b 417 -96 328 -271 417 -190 z "},"˝":{"ha":614,"x_min":0,"x_max":0,"o":"m 574 853 b 514 915 574 886 547 915 b 478 904 501 915 489 911 l 336 806 b 310 756 318 793 310 775 b 371 694 310 721 336 694 b 406 706 382 694 394 697 l 547 803 b 574 853 564 815 574 835 z m 304 853 b 244 915 304 886 278 915 b 208 904 232 915 219 911 l 67 806 b 40 756 49 793 40 775 b 101 694 40 721 67 694 b 136 706 113 694 125 697 l 278 803 b 304 853 294 815 304 835 z "},"˛":{"ha":614,"x_min":0,"x_max":0,"o":"m 431 -210 b 381 -150 431 -181 410 -154 b 304 -96 317 -139 304 -115 b 331 -58 304 -75 315 -58 b 392 4 364 -58 392 -31 b 331 65 392 38 364 65 b 188 -96 243 65 188 -14 b 369 -271 188 -190 276 -271 b 431 -210 404 -271 431 -243 z "},"ˇ":{"ha":614,"x_min":0,"x_max":0,"o":"m 529 864 b 468 925 529 897 503 925 b 435 915 457 925 446 921 l 308 833 l 179 915 b 146 925 168 921 157 925 b 85 864 113 925 85 897 b 113 811 85 843 94 824 l 275 708 b 308 699 285 703 296 699 b 340 708 319 699 331 703 l 501 811 b 529 864 519 824 529 843 z "}," ":{"ha":282,"x_min":0,"x_max":0,"o":""},"€":{"ha":872,"x_min":0,"x_max":0,"o":"m 844 172 b 765 251 844 217 810 251 b 721 236 749 251 735 246 b 479 142 635 174 551 142 b 321 219 411 142 356 171 l 538 219 b 615 297 581 219 615 254 b 538 375 615 340 581 375 l 281 375 b 294 442 283 399 288 421 l 538 442 b 615 519 581 442 615 476 b 538 597 615 563 581 597 l 407 597 b 772 751 510 682 656 731 b 838 828 810 757 836 790 b 760 906 838 871 801 906 b 746 904 754 906 750 906 b 199 597 543 869 314 771 l 96 597 b 18 519 53 597 18 563 b 96 442 18 476 53 442 l 133 442 b 125 375 129 419 126 399 l 96 375 b 18 297 53 375 18 340 b 96 219 18 254 53 219 l 146 219 b 475 -14 194 82 321 -14 b 813 110 568 -14 679 13 b 844 172 833 125 844 150 z "},"Ð":{"ha":924,"x_min":0,"x_max":0,"o":"m 890 549 b 501 906 890 772 713 906 b 186 832 406 906 299 882 b 140 761 158 819 140 792 l 140 503 l 67 474 b 18 401 38 461 18 432 b 24 372 18 392 21 382 b 96 324 36 342 65 324 b 125 329 106 324 117 325 l 140 335 l 140 64 b 218 -15 140 19 176 -15 b 231 -14 222 -15 226 -14 b 890 549 515 35 890 213 z m 733 551 b 296 143 733 422 597 221 l 296 399 l 382 433 b 431 506 413 444 431 474 b 425 535 431 515 429 525 b 353 583 413 565 383 583 b 324 578 343 583 333 581 l 296 567 l 296 708 b 501 750 369 736 438 750 b 733 551 624 750 733 686 z "},"ð":{"ha":763,"x_min":0,"x_max":0,"o":"m 729 374 b 472 797 729 525 650 686 l 515 844 b 538 896 531 858 538 878 b 463 976 538 940 506 976 b 404 953 442 976 419 969 l 324 869 b 183 907 281 885 233 897 b 168 908 178 908 172 908 b 90 831 125 908 90 874 b 153 754 90 794 117 761 b 201 743 169 751 186 747 l 168 708 b 146 653 153 693 146 672 b 222 576 146 611 181 576 b 279 600 243 576 264 583 l 360 682 b 494 578 408 656 463 611 b 33 238 176 551 33 390 b 313 -14 33 113 129 -14 b 729 374 543 -14 729 138 z m 574 375 b 313 142 574 236 471 142 b 189 238 238 142 189 179 b 565 440 189 349 329 435 b 574 375 569 418 574 397 z "},"Ł":{"ha":683,"x_min":0,"x_max":0,"o":"m 651 78 b 574 156 651 121 617 156 l 315 156 l 315 433 l 396 465 b 444 538 425 478 444 507 b 439 567 444 547 442 557 b 367 615 426 597 397 615 b 338 610 357 615 346 614 l 315 601 l 315 822 b 238 901 315 865 281 901 b 160 822 194 901 160 865 l 160 538 l 81 506 b 32 433 50 494 32 465 b 38 404 32 424 33 414 b 110 356 50 375 79 356 b 139 361 119 356 129 358 l 160 369 l 160 78 b 238 0 160 35 194 0 l 574 0 b 651 78 617 0 651 35 z "},"ł":{"ha":428,"x_min":0,"x_max":0,"o":"m 419 547 b 414 576 419 557 418 567 b 342 625 401 607 372 625 b 313 619 332 625 322 624 l 286 608 l 286 828 b 214 901 286 868 254 901 b 142 828 174 901 142 868 l 142 550 l 56 515 b 7 443 26 503 7 474 b 13 414 7 433 10 424 b 86 365 25 383 54 365 b 115 371 96 365 106 367 l 142 382 l 142 64 b 214 -8 142 25 174 -8 b 286 64 254 -8 286 25 l 286 440 l 371 475 b 419 547 401 488 419 517 z "}}}
